<svg width="81" height="55" viewBox="0 0 81 55" fill="none" xmlns="http://www.w3.org/2000/svg">
<g clip-path="url(#clip0_4263_287)">
<path d="M74.5172 54.3898C70.7078 54.3898 68.4444 52.4422 68.3072 49.6756H71.888C71.888 50.5353 72.4307 51.8062 74.7407 51.8476C76.2838 51.8476 77.0097 50.9428 77.0097 50.2645C76.9183 49.1772 75.5577 49.0871 74.1046 48.8593C72.6585 48.6308 71.4342 48.3623 70.5279 47.9079C69.3927 47.3185 68.621 46.0466 68.621 44.5994C68.621 42.1499 70.7539 40.2011 74.2912 40.2011C77.7313 40.2011 79.9089 42.0138 80.1362 44.689H76.6918C76.645 43.967 76.5101 42.8282 74.4699 42.8282C73.1089 42.8282 72.2072 43.1047 72.1135 44.054C72.1135 45.4618 74.9692 45.3689 77.1892 45.9563C79.3187 46.5017 80.6801 47.8163 80.6801 49.6756C80.6801 53.0744 77.915 54.3898 74.5172 54.3898V54.3898ZM8.70202 31.6368L20.6237 24.7917L26.9223 35.6699H11.0159L8.70202 31.6368ZM32.0002 54.0724H35.4014V40.3373H32.0002V54.0724ZM7.11483 54.3898C3.21994 54.3898 0 51.1683 0 47.2711C0 43.3276 3.21994 40.2011 7.11483 40.2011C8.61167 40.2011 10.0174 40.6091 11.1958 41.4266V40.3373H14.5488V54.0724H11.1958V53.1635C10.0619 53.9368 8.65774 54.3898 7.11483 54.3898V54.3898ZM3.26345 47.2711C3.26345 49.4027 5.07588 51.1683 7.208 51.1683C9.38363 51.1683 11.1961 49.4027 11.1961 47.2711C11.1961 45.1403 9.38389 43.3276 7.20826 43.3276C5.07614 43.3276 3.26345 45.1403 3.26345 47.2711V47.2711ZM52.896 35.6701L36.3059 6.88857L48.2292 0L68.8531 35.6701H52.896ZM22.8894 54.3898C18.9464 54.3898 15.7301 51.1683 15.7301 47.2711C15.7301 43.3276 18.9464 40.2011 22.8892 40.2011C24.385 40.2011 25.7472 40.6091 26.9223 41.4266V35.6699H30.3199V54.0724H26.9223V53.1635C25.7472 53.9368 24.385 54.3898 22.8894 54.3898V54.3898ZM18.9902 47.2711C18.9902 49.4027 20.8029 51.1683 22.9806 51.1683C25.1101 51.1683 26.9223 49.4027 26.9223 47.2711C26.9223 45.1403 25.1101 43.3276 22.9806 43.3276C20.8029 43.3276 18.9902 45.1403 18.9902 47.2711ZM22.6163 19.3967L34.5857 12.5544L47.9535 35.6699H35.4014V39.0703H32.0002V35.6701L22.6163 19.3967ZM59.5591 54.3898C55.6627 54.3898 52.4412 51.1683 52.4412 47.2711C52.4412 43.3276 55.6627 40.2011 59.5594 40.2011C61.0559 40.2011 62.456 40.6091 63.5907 41.4266V40.3373H66.9918V54.0724H63.5904V53.1635C62.456 53.9368 61.1005 54.3898 59.5591 54.3898V54.3898ZM55.7507 47.2711C55.7507 49.4027 57.5639 51.1683 59.694 51.1683C61.8253 51.1683 63.5904 49.4027 63.5904 47.2711C63.5904 45.1403 61.8253 43.3276 59.694 43.3276C57.5639 43.3276 55.7507 45.1403 55.7507 47.2711Z" fill="white"/>
<path d="M47.9536 35.6702H51.3084V54.0722H47.9536V53.1635C46.8218 53.9368 45.4168 54.3898 43.8752 54.3898C39.9762 54.3898 36.7578 51.1684 36.7578 47.2709C36.7578 43.3276 39.9762 40.2014 43.8752 40.2014C45.4168 40.2014 46.7772 40.6091 47.9536 41.4264V35.6699V35.6702ZM40.0694 47.2709C40.0694 49.4025 41.8785 51.1684 43.9694 51.1684C46.1425 51.1684 47.9536 49.4025 47.9536 47.2709C47.9536 45.1403 46.1427 43.3276 43.9694 43.3276C41.8782 43.3276 40.0694 45.1403 40.0694 47.2709Z" fill="white"/>
</g>
<defs>
<clipPath id="clip0_4263_287">
<rect width="80.8823" height="55" fill="white"/>
</clipPath>
</defs>
</svg>
