<svg width="81" height="41" viewBox="0 0 81 41" fill="none" xmlns="http://www.w3.org/2000/svg">
<path fill-rule="evenodd" clip-rule="evenodd" d="M43.6748 29.2233C47.1422 29.2233 49.7321 31.7124 49.7321 35.0434C49.7321 38.388 47.1422 40.8726 43.6748 40.8726C40.2027 40.8726 37.6034 38.388 37.6034 35.0434C37.6034 31.7079 40.2027 29.2233 43.6748 29.2233ZM43.6748 30.3109C40.8632 30.3109 38.8158 32.3085 38.8158 35.0434C38.8158 37.7919 40.8585 39.7896 43.6748 39.7896C46.477 39.7896 48.5339 37.7919 48.5339 35.0434C48.5339 32.3085 46.477 30.3109 43.6748 30.3109ZM65.5689 32.8864C67.0709 32.8864 67.8484 33.8197 67.8838 35.6823L67.8852 35.817V36.1309H64.6537C64.6962 36.9773 65.0783 37.3368 65.984 37.3368C66.4501 37.3368 66.8072 37.244 67.2752 36.9823L67.3946 36.9136L67.7248 37.9102C67.4984 38.0513 67.4087 38.0922 67.2483 38.1696C66.7766 38.3743 66.2199 38.4836 65.6114 38.4836C63.9413 38.4836 62.9365 37.4551 62.9365 35.7715C62.9365 34.0377 63.9885 32.8864 65.5689 32.8864ZM76.8768 32.891C77.4948 32.891 77.9147 33.0002 78.2638 33.2368C78.7157 33.5599 78.8605 33.949 78.8714 34.8978L78.8723 35.0252V38.4153H77.2636V37.8192H77.1976C77.075 37.9511 76.9806 38.0376 76.9146 38.0922C76.5985 38.3379 76.1362 38.4699 75.6172 38.4699C74.636 38.4699 74.1029 37.942 74.1029 36.9637C74.1029 35.6941 75.0233 35.0525 76.8952 35.022L77.0372 35.0206H77.1976V34.7703C77.1976 34.3244 76.9523 34.1287 76.3862 34.1287C76.1975 34.1287 75.9899 34.1469 75.7776 34.1924C75.471 34.2561 75.3719 34.288 74.97 34.4746L74.8719 34.5201L74.7351 34.5838L74.3718 33.519C75.0936 33.0958 75.9192 32.891 76.8768 32.891ZM21.5638 32.8955C22.9649 32.8955 23.4711 33.3483 23.497 34.6452L23.498 34.7521V37.3368C23.498 37.6599 23.597 37.7964 23.8588 37.8128L23.9178 37.8146H23.998V38.4016H22.3799C22.0497 38.4016 21.8713 38.251 21.8492 37.9571L21.8468 37.892V37.8146C21.4836 38.0877 21.3373 38.1741 21.0873 38.2833C20.8042 38.3925 20.4882 38.4563 20.1391 38.4563C19.1767 38.4563 18.7144 37.9602 18.7144 36.9273C18.7144 36.1173 19.054 35.5849 19.7664 35.3119C19.9787 35.2254 20.1957 35.1617 20.4316 35.1071C20.8165 35.0261 21.0392 34.9851 21.6605 34.89L21.7902 34.8705V34.7521C21.7902 34.2743 21.6204 34.1105 21.1439 34.1105C20.6769 34.1105 20.099 34.2366 19.5517 34.4682L19.4031 34.5337L19.0116 33.478C19.5447 33.2323 19.7711 33.1413 20.2098 33.0457C20.6486 32.9501 21.1014 32.8955 21.5638 32.8955ZM62.0826 32.9547C62.2251 32.9547 62.3195 32.962 62.5143 33.0179L62.5921 33.0412V34.5383C62.2666 34.4427 62.1062 34.42 61.9034 34.42C61.5269 34.42 61.2698 34.5078 60.9863 34.733L60.908 34.7976V38.4153H59.2002V32.9911H60.8042V33.7055H60.8844C61.224 33.2141 61.6439 32.9547 62.0826 32.9547ZM6.76959 31.1709C7.17199 31.1709 7.41683 31.3311 7.53949 31.6733L7.56213 31.7443L9.53878 38.4107H7.54798L7.03849 36.6634H4.89201L4.34949 38.4107V38.4153H2.51909L4.49574 32.7135C4.60896 32.3859 4.64198 32.2676 4.64198 32.1265C4.64198 31.9249 4.50517 31.8162 4.2542 31.8007L4.1891 31.7989H3.95322V31.1709H6.76959ZM56.3886 31.1755L58.6483 38.4107H56.7754L56.2801 36.6634H54.2468L53.7515 38.4107H51.9541L54.1996 31.1755H56.3886ZM34.8578 32.9775V34.0969L32.5084 37.2686H34.9757V38.4107H30.5318V37.2913L32.9047 34.0878H31.6404C31.3791 34.0878 31.2423 34.1888 31.2229 34.4008L31.2206 34.4564V34.5519H30.5648V33.5645C30.5648 33.1877 30.7318 33.0002 31.1017 32.9793L31.1734 32.9775H34.8578ZM28.3287 32.9137C28.791 32.9137 29.1543 33.0457 29.3901 33.296C29.6595 33.5777 29.7326 33.8389 29.7388 34.602L29.7392 34.7203V38.4107H27.9749V34.9706C27.9749 34.4291 27.8853 34.288 27.5126 34.288C27.1927 34.288 26.9083 34.4063 26.6379 34.668L26.5643 34.743V38.4107H24.8047V34.015C24.8047 33.7529 24.6948 33.6204 24.4452 33.6027L24.3848 33.6009H24.2811V32.982H25.9558C26.295 32.982 26.4738 33.1326 26.4959 33.4266L26.4983 33.4917V33.7055C27.154 33.1185 27.6399 32.9137 28.3287 32.9137ZM14.2752 31.1664C14.6026 31.1664 14.8134 31.3502 14.8389 31.6583L14.8413 31.7215V38.4062H13.0675V32.1948C13.0675 31.9327 12.9576 31.8121 12.708 31.7961L12.6476 31.7943H12.5344V31.1664H14.2752ZM11.2607 31.1664C11.5881 31.1664 11.7989 31.3502 11.8244 31.6583L11.8268 31.7215V38.4062H10.053V32.1948C10.053 31.9327 9.94307 31.8121 9.69351 31.7961L9.63313 31.7943H9.51991V31.1664H11.2607ZM17.3369 32.9775C17.6643 32.9775 17.8751 33.1613 17.9006 33.4694L17.903 33.5326V38.4062H16.1433V34.0104C16.1433 33.7483 16.0334 33.6159 15.7838 33.5981L15.7235 33.5963H15.6197V32.9775H17.3369ZM72.013 32.9183C72.9481 32.9183 73.4245 33.4457 73.4552 34.5082L73.4566 34.6202V38.4062H71.7536V35.1844C71.7536 34.5337 71.6309 34.3289 71.2111 34.3289C70.8827 34.3289 70.6841 34.4231 70.3779 34.7062L70.3053 34.7749V38.4062H68.6164V32.982H70.2204V33.7419H70.2864C70.7723 33.2095 71.3573 32.9183 72.013 32.9183ZM43.8211 31.3529C44.3051 31.3529 44.4825 31.5008 44.499 31.9331L44.5004 32.0036V38.115H42.8398V32.4268C42.8398 32.263 42.8162 32.1902 42.7502 32.1129C42.703 32.0673 42.6464 32.04 42.5898 32.0355C42.5898 32.0355 42.4742 32.025 42.3789 32.0255L42.3398 32.0264V31.3529H43.8211ZM42.0992 32.85V38.115H40.4386V33.5008C40.4386 33.0612 40.6122 32.8705 41.0434 32.8514L41.1179 32.85H42.0992ZM46.2176 32.85C46.6912 32.85 46.8771 33.0134 46.8955 33.4293L46.8969 33.5008V38.115H45.2458V32.85H46.2176ZM77.1882 36.0126H76.9051C76.6787 36.0126 76.3815 36.0763 76.1692 36.1628C75.9239 36.272 75.7871 36.4904 75.7871 36.7817C75.7871 37.1366 75.9758 37.3232 76.339 37.3232C76.6721 37.3232 76.9179 37.224 77.1306 37.0142L77.1882 36.9546V36.0126ZM21.7902 35.8033C21.3468 35.8807 21.0401 35.9671 20.8042 36.0627C20.4882 36.181 20.3985 36.3676 20.3985 36.768C20.3985 37.173 20.5118 37.3232 20.8278 37.3232C21.109 37.3232 21.4373 37.1739 21.7157 36.925L21.7902 36.8545V35.8033ZM6.02422 32.8136L5.17506 35.4757H6.76959L6.02422 32.8136ZM55.3035 32.982H55.2233L54.5346 35.4575H55.9781L55.3035 32.982ZM65.484 33.9922C64.9745 33.9922 64.6928 34.3503 64.6612 35.0265L64.6584 35.1207H66.2058V35.0889C66.2058 34.3517 65.9699 33.9922 65.484 33.9922ZM16.917 31.048C17.5633 31.048 17.936 31.3438 17.936 31.8307C17.936 32.3176 17.5633 32.6134 16.917 32.6134C16.2801 32.6134 15.898 32.3176 15.898 31.8307C15.898 31.3393 16.2848 31.048 16.917 31.048ZM26.2105 0.0272826C27.3569 -0.0136719 28.5033 0.00908061 29.6496 0.0318331C30.2204 0.0454846 30.796 0.0636866 31.3668 0.0864391C31.9423 0.104641 32.5132 0.136495 33.084 0.163798C35.372 0.282111 37.6553 0.473232 39.9291 0.718959C44.4768 1.21041 49.0009 1.92484 53.4779 2.84404L54.2374 3.00331C56.2187 3.42196 58.1954 3.88156 60.1532 4.39576C61.2618 4.68244 62.361 4.99188 63.4554 5.31041C64.5452 5.63805 65.6396 5.97023 66.72 6.33428C67.805 6.69832 68.8806 7.07601 69.942 7.4901C70.4798 7.69032 71.0035 7.90875 71.5318 8.12717C72.0602 8.35015 72.5791 8.59587 73.0792 8.87345C74.084 9.42861 75.0275 10.0975 75.8342 10.903C76.6362 11.713 77.3014 12.6686 77.6929 13.7334C77.7731 13.9427 77.8345 14.1566 77.8911 14.3705L77.91 14.4251C78.1222 15.2851 78.16 16.1861 78.0137 17.0598C77.8298 18.1747 77.3533 19.2304 76.7164 20.1632C76.0701 21.0961 75.2634 21.9152 74.3671 22.616C73.6638 23.1633 72.9124 23.6505 72.1215 24.0721L75.5229 24.0858L78.009 24.0949C78.8346 24.0994 79.6649 24.104 80.4952 24.1813C80.547 24.1904 80.5848 24.2314 80.5801 24.2814C80.5754 24.327 80.5376 24.3588 80.4952 24.3634C79.6696 24.4453 78.8393 24.4498 78.009 24.4498L75.5229 24.4589L70.5459 24.4771L60.5966 24.5135L40.6981 24.5408L20.7995 24.5135L10.8503 24.4771L5.87326 24.4589L3.38712 24.4498C2.56155 24.4453 1.73126 24.4407 0.900979 24.3634C0.888118 24.3652 0.875005 24.3643 0.86253 24.3608C0.850055 24.3572 0.838511 24.3512 0.828682 24.343C0.818852 24.3348 0.810968 24.3246 0.805564 24.3132C0.80016 24.3018 0.797363 24.2894 0.797363 24.2769C0.797363 24.2644 0.80016 24.252 0.805564 24.2406C0.810968 24.2292 0.818852 24.219 0.828682 24.2108C0.838511 24.2026 0.850055 24.1966 0.86253 24.193C0.875005 24.1895 0.888118 24.1886 0.900979 24.1904C1.72655 24.1085 2.55683 24.104 3.38712 24.104L5.87326 24.0949L7.87349 24.0858C7.12339 23.5366 6.43977 22.9077 5.83552 22.211C5.08543 21.36 4.46271 20.3953 4.02398 19.3533C3.58054 18.3112 3.33051 17.1918 3.29748 16.0632C3.25974 14.9347 3.44373 13.8062 3.77396 12.7323C4.43913 10.5753 5.71286 8.62773 7.30739 7.0123C8.90663 5.38777 10.8219 4.08633 12.8741 3.07157C14.9309 2.06136 17.1293 1.33328 19.3748 0.846373C21.6204 0.359469 23.9131 0.100091 26.2105 0.0272826ZM13.2609 21.3373C12.124 21.4374 10.9871 21.5466 9.85013 21.6786C9.4916 21.7195 9.13779 21.765 8.78397 21.8105C8.84813 23.1425 9.60954 23.9251 9.74824 24.0603L9.76994 24.0812L10.8408 24.0767L13.0911 24.0676C13.0533 23.9438 13.0156 23.7736 13.0019 23.7104L12.9967 23.6853C12.959 23.4624 12.9354 23.2439 12.9354 23.0164C12.926 22.5614 13.0109 22.1109 13.143 21.6831C13.1807 21.5648 13.2185 21.451 13.2609 21.3373ZM71.6498 22.2656C71.6498 22.2656 69.7156 23.5443 68.6353 24.063L70.5459 24.0721L71.4847 24.0767C72.381 23.6262 73.2443 23.1029 74.0321 22.4976L71.6498 22.2656ZM8.32637 21.8697L7.73196 21.9561C7.25078 22.0335 6.7743 22.1154 6.29783 22.2064C6.59976 22.5477 6.92055 22.8753 7.26021 23.1848C7.61403 23.5079 7.99143 23.8173 8.3877 24.0767L9.26044 24.0721L9.13307 23.922C9.0057 23.7581 8.89248 23.5807 8.79341 23.3941C8.59527 23.0255 8.46318 22.6251 8.38298 22.2201C8.35939 22.1063 8.34053 21.988 8.32637 21.8697ZM20.7382 20.8367C16.0112 21.0415 13.9261 21.2827 13.9214 21.2827C13.8364 21.4692 13.7562 21.6604 13.6855 21.8515C13.5534 22.2337 13.459 22.6296 13.4307 23.0255C13.4166 23.2257 13.4213 23.4305 13.4402 23.6307C13.4496 23.7308 13.4638 23.8309 13.4826 23.9265C13.4921 23.972 13.5015 24.0221 13.5157 24.0676L18.7663 24.0494L18.7946 23.9129C18.8182 23.7945 18.8512 23.6853 18.8889 23.5761C18.9219 23.4624 18.9691 23.3622 19.0116 23.253C19.0635 23.1484 19.1106 23.0437 19.1625 22.9436C19.3748 22.5432 19.6249 22.1655 19.9032 21.8105C20.1674 21.4692 20.4457 21.1507 20.7382 20.8367ZM68.2815 21.9561L68.0739 22.0972C67.0125 22.7934 65.9227 23.4396 64.8141 24.0539L67.956 24.0676L68.607 23.699C68.8712 23.5534 69.1306 23.4032 69.3854 23.2485L70.1543 22.7889L70.9091 22.3065L71.0507 22.211L68.2815 21.9561ZM30.4327 20.4954C27.8475 20.5409 25.2623 20.6183 22.6818 20.7321L21.6015 20.7867C21.4694 20.9141 21.342 21.0415 21.2194 21.1689C20.9127 21.4829 20.6155 21.7969 20.3419 22.1291C20.073 22.4658 19.8088 22.8025 19.5918 23.162C19.5352 23.253 19.4881 23.344 19.4362 23.4351C19.3937 23.5306 19.3418 23.6216 19.3041 23.7172C19.3041 23.7172 19.2286 23.9083 19.1908 24.0448L20.7948 24.0403L26.5266 24.0312C27.8003 22.2155 30.428 20.5091 30.4327 20.4954ZM64.1442 21.6103C64.0782 21.6513 64.0168 21.6922 63.9555 21.7332C63.1922 22.2215 62.4167 22.6918 61.6298 23.1438C61.2335 23.3713 60.8372 23.5898 60.4362 23.8082C60.2947 23.8856 60.1484 23.9629 60.0069 24.0357L60.5919 24.0266L64.1112 24.0403C65.2906 23.3486 66.4558 22.6387 67.5974 21.8879C66.9181 21.8287 66.2388 21.7741 65.5595 21.7195L64.1442 21.6103ZM58.318 21.219L53.4354 24.0312L58.7747 24.0357H59.1861L61.375 22.7479C62.0355 22.352 62.6912 21.9561 63.3422 21.5557C61.6675 21.4328 59.9928 21.3191 58.318 21.219ZM51.1332 20.8458L45.576 24.0175L52.6947 24.0266L53.2373 23.6671L53.926 23.2394C54.3883 22.9573 54.8459 22.6751 55.3083 22.4021L56.6952 21.5784L57.3981 21.1644C57.2613 21.1598 57.1292 21.1507 56.9924 21.1416C55.0394 21.0278 53.0863 20.9323 51.1332 20.8458ZM33.4 20.4727C32.749 20.4727 32.098 20.4818 31.447 20.4909C28.357 22.3247 27.0219 24.0312 27.0267 24.0266L35.5041 24.0175C38.528 21.7514 41.1321 20.5364 41.1321 20.5364C40.6981 20.5273 40.2688 20.5182 39.8395 20.5136C38.4101 20.4954 36.9759 20.4772 35.5465 20.4772L33.4 20.4727ZM42.2171 20.5546C39.1271 22.0836 36.1834 24.0175 36.1834 24.0175L40.6934 24.0084L44.892 24.013C46.4393 23.0346 50.1803 20.8003 50.1803 20.8003L42.2171 20.5546ZM75.9192 18.4341C75.3625 19.1667 74.7115 19.8356 74.0227 20.4499C73.3892 21.0021 72.7246 21.5202 72.0319 22.0016L74.3482 22.2519C75.1502 21.5967 75.8767 20.8458 76.4522 20.004C76.7264 19.5993 76.9647 19.1731 77.1646 18.7298C76.7494 18.6297 76.3343 18.5296 75.9192 18.4341ZM73.4755 17.8971L73.466 17.9062C72.9161 18.4283 72.3465 18.9307 71.7583 19.4124C70.7818 20.2133 69.7581 20.9596 68.7108 21.6695L69.8666 21.7787L71.4469 21.9425C72.2536 21.3964 73.032 20.814 73.7585 20.1769C74.3991 19.616 74.9879 19.0024 75.5182 18.343C74.8388 18.1883 74.1595 18.0382 73.4755 17.8971ZM11.0814 14.7117C10.4964 14.7937 9.91146 14.8801 9.33121 14.9802C8.55753 15.1076 7.78857 15.2578 7.02905 15.4262C6.67524 15.5081 6.32142 15.5945 5.96761 15.6856C5.88741 15.8903 5.81193 16.0996 5.74117 16.309C5.0241 18.4887 5.53359 20.6137 5.81193 21.624L6.01478 21.8742C6.56202 21.7559 7.10925 21.6513 7.6612 21.5602C7.86877 21.5238 8.08106 21.492 8.28863 21.4601C8.2792 21.3054 8.27448 21.1507 8.2792 20.996C8.28392 20.5864 8.33109 20.1769 8.41129 19.7765C8.5764 18.9756 8.86889 18.2065 9.23214 17.4784C9.60011 16.7504 10.0483 16.0678 10.5295 15.4125C10.7087 15.1759 10.8927 14.9438 11.0814 14.7117ZM70.3289 17.2737C69.7142 17.7586 69.0898 18.232 68.456 18.6934C67.7248 19.2258 66.9794 19.7446 66.2293 20.2497C65.701 20.6046 65.1726 20.955 64.6443 21.2963L65.5972 21.3782C66.4133 21.4465 67.2295 21.5238 68.0456 21.6012C68.6023 21.2326 69.1542 20.8504 69.692 20.459C70.302 20.0194 70.8998 19.5642 71.4847 19.0939C71.9989 18.6752 72.5037 18.2429 72.9896 17.7924C72.1027 17.6104 71.2158 17.4375 70.3289 17.2737ZM19.8371 13.9245C17.1953 14.061 14.5582 14.2658 11.94 14.598C11.6145 14.9711 11.3031 15.3534 11.0059 15.7447C10.5342 16.3772 10.1049 17.0325 9.74635 17.7242C9.37838 18.4068 9.09533 19.1303 8.91135 19.8766C8.79813 20.3726 8.73208 20.8822 8.75095 21.3919C9.10005 21.3418 9.44443 21.2918 9.79352 21.2463C11.0201 21.0824 12.2466 20.9505 13.4779 20.8367C13.5392 20.7093 13.6006 20.5819 13.6666 20.459C13.8789 20.0677 14.1148 19.6945 14.3695 19.3351C15.3932 17.8971 16.6481 16.6503 17.9549 15.4853C18.5681 14.9484 19.1956 14.4296 19.8371 13.9245ZM65.7953 16.5046C65.1537 16.9369 64.5122 17.3692 63.8611 17.7879C62.2336 18.839 60.5872 19.8538 58.9266 20.8504C60.573 20.9687 62.2194 21.0961 63.8659 21.2372C65.3377 20.318 66.786 19.3624 68.1871 18.3476C68.7155 17.9608 69.2391 17.574 69.7581 17.1736C69.1731 17.0689 68.5881 16.9642 68.0031 16.8641C67.2672 16.7413 66.5313 16.623 65.7953 16.5046ZM60.1484 15.681C59.521 16.0541 58.8936 16.4227 58.2662 16.7913C56.1527 18.0245 54.0251 19.2304 51.8928 20.4226C53.6005 20.5091 55.313 20.6137 57.0207 20.723L58.035 20.7912L58.0869 20.7594C59.9409 19.6627 61.776 18.5478 63.5828 17.3874C64.0923 17.0644 64.5971 16.7322 65.1019 16.3954C63.4554 16.1361 61.8043 15.8994 60.1484 15.681ZM30.2487 13.6788C27.1776 13.6697 24.1065 13.7197 21.0401 13.8563L20.8561 13.8654C19.9975 14.5206 19.1625 15.1941 18.3653 15.9085C17.0821 17.0598 15.8697 18.293 14.8837 19.6672C14.8837 19.6672 14.379 20.409 14.1903 20.7594C16.5585 20.55 18.9314 20.3862 21.3043 20.2634L21.743 19.8447C23.0592 18.6343 24.4745 17.5422 25.9322 16.5092C27.338 15.5172 28.7816 14.5752 30.2487 13.6788ZM5.31659 15.8585C4.78822 16.0132 4.26458 16.1816 3.75509 16.3772C3.80698 17.3465 4.0287 18.3066 4.40139 19.2031C4.61839 19.74 4.89201 20.2588 5.20809 20.7548C5.04769 20.1268 4.89201 19.2031 4.92503 18.252C4.95334 17.5331 5.01938 16.8459 5.22224 16.1588C5.25054 16.0587 5.28357 15.9586 5.31659 15.8585ZM52.6995 14.8255L51.3691 15.5536L43.4154 19.8948C43.3021 19.9585 43.1936 20.0222 43.0804 20.0813L44.1419 20.1086C45.576 20.1587 47.0101 20.1951 48.4395 20.2634C49.2745 20.2952 50.1048 20.3316 50.9398 20.3726L59.3512 15.5763L58.6813 15.4899C57.9029 15.3852 57.1198 15.3033 56.3414 15.2123L55.1715 15.0758L53.9968 14.9575L52.6995 14.8255ZM31.3243 13.6879C29.6024 14.7254 27.9136 15.813 26.2813 16.9733C24.8613 17.9881 23.4791 19.062 22.2006 20.227C22.3516 20.2178 22.5026 20.2087 22.6535 20.2042C25.5171 20.0722 28.3806 19.9767 31.2489 19.9448C31.2489 19.9448 31.2536 19.9448 31.2536 19.9494C31.5932 19.7218 31.9376 19.4989 32.282 19.2804C32.9991 18.8208 33.7256 18.3794 34.4521 17.9426C36.8014 16.5456 39.2026 15.2396 41.6274 13.9837C41.4434 13.97 41.2547 13.9609 41.066 13.9518L39.8867 13.9018L37.5326 13.8016L35.1738 13.7425C33.8907 13.7015 32.6075 13.697 31.3243 13.6879ZM42.6889 14.0474C39.9999 15.4353 37.3439 16.8732 34.754 18.4159C33.9237 18.9073 33.1028 19.417 32.2914 19.9403L33.3953 19.9357L35.5465 19.9494C36.9807 19.9539 38.4101 19.9812 39.8442 20.004C40.566 20.0131 41.2878 20.0313 42.0095 20.0449C42.3822 19.8356 42.7596 19.6308 43.137 19.4215C45.7883 17.9699 48.449 16.5365 51.1049 15.0985L51.789 14.7299L51.6475 14.7163L49.2981 14.5115C48.515 14.4387 47.7319 14.3841 46.9488 14.325C46.1657 14.2703 45.3826 14.2066 44.5995 14.1566L42.6889 14.0474ZM77.6977 15.0576C77.2353 16.582 76.122 18.1565 76.122 18.161C76.5088 18.2566 76.8957 18.3521 77.2825 18.4523C77.4665 17.9881 77.608 17.5103 77.6882 17.0188C77.7967 16.3727 77.7967 15.7083 77.6977 15.0576ZM76.4617 14.1429L76.3343 14.3887C75.9663 15.0576 75.5182 15.6719 75.0323 16.2544C74.636 16.7276 74.2114 17.1781 73.7727 17.6104C74.4284 17.756 75.0841 17.9062 75.7352 18.0655C76.9476 16.582 77.5844 14.557 77.5892 14.557C77.2118 14.416 76.8391 14.2794 76.4617 14.1429ZM74.386 13.424C73.8623 14.0838 73.2726 14.689 72.6641 15.2715C72.0413 15.863 71.3856 16.4227 70.7157 16.9642C71.579 17.1372 72.4376 17.3146 73.2962 17.5012C73.7963 17.0234 74.2775 16.5319 74.7303 16.0132C75.2162 15.4535 75.6644 14.8619 76.0418 14.2339C76.0843 14.1702 76.1173 14.102 76.155 14.0337C75.5653 13.8244 74.9756 13.6196 74.386 13.424ZM71.1592 12.4001C68.9608 14.4433 66.3001 16.1543 66.3048 16.1588C66.8945 16.2589 67.4889 16.359 68.0786 16.4682C68.7721 16.5957 69.4656 16.7231 70.159 16.8596C70.9186 16.2589 71.6639 15.6355 72.3763 14.9848C72.9518 14.4478 73.5085 13.8927 74.0133 13.3011C73.065 12.9871 72.1168 12.6868 71.1592 12.4001ZM67.0266 11.2397C66.2954 11.7721 65.55 12.2818 64.7952 12.7778C63.4837 13.6515 62.1392 14.4797 60.79 15.2942C62.4034 15.5263 64.0168 15.772 65.6255 16.0405C66.7247 15.2988 67.8097 14.5343 68.8664 13.7379C69.4939 13.2601 70.126 12.7869 70.7157 12.2681C69.4925 11.9041 68.2626 11.5613 67.0266 11.2397ZM11.6051 7.77223C10.2417 8.01796 8.88776 8.30464 7.55742 8.65958C7.0951 8.78244 6.6375 8.91896 6.1799 9.06458C5.97704 9.34216 5.78362 9.62429 5.59964 9.91097C5.01467 10.8393 4.5382 11.8267 4.2174 12.8642C3.90133 13.8608 3.7315 14.9029 3.74093 15.9404C4.32119 15.7174 4.90616 15.5217 5.50057 15.3488C5.65625 14.9484 5.8308 14.5525 6.02893 14.1702C6.36388 13.5332 6.746 12.9234 7.16586 12.3455C8.00558 11.1806 8.98683 10.1294 10.0294 9.14648C10.5389 8.67323 11.0673 8.21363 11.6051 7.77223ZM61.5118 9.91552C60.7759 10.3387 60.0399 10.7619 59.304 11.176C57.3698 12.259 55.4356 13.3284 53.492 14.3932C55.2422 14.5798 56.9924 14.7891 58.7426 15.0166C59.1672 15.0712 59.5871 15.1304 60.0069 15.1895C61.5307 14.284 63.045 13.3602 64.5358 12.4046C65.1962 11.9769 65.8472 11.5446 66.4982 11.1077C65.7293 10.9075 64.9603 10.7164 64.1914 10.5298C63.2998 10.316 62.4081 10.1112 61.5118 9.91552ZM20.9882 6.69832C19.6249 6.78477 18.2568 6.89399 16.8981 7.03505C15.4593 7.18522 14.0251 7.37179 12.6005 7.60386C11.8327 8.20611 11.0929 8.84076 10.3832 9.50597C9.36423 10.4798 8.42072 11.5218 7.60931 12.6504C7.04711 13.4379 6.56824 14.2779 6.1799 15.1577C6.42049 15.094 6.6658 15.0303 6.91111 14.9711C8.44903 14.598 10.0105 14.3295 11.572 14.1111H11.5862C12.2891 13.3147 13.0533 12.5639 13.8459 11.854C15.0583 10.771 16.3462 9.7699 17.6812 8.83705C18.7568 8.08167 19.8607 7.37179 20.9882 6.69832ZM54.077 8.49576C53.6524 8.69143 53.2325 8.8871 52.8127 9.08278C51.2748 9.7972 49.7463 10.5298 48.2178 11.2716C46.694 12.0133 45.175 12.7732 43.6654 13.5423H43.6607C46.6469 13.7334 49.6236 13.9837 52.5957 14.2931C54.7563 13.1236 56.9169 11.9632 59.0634 10.7756L60.8749 9.779C60.4268 9.68344 59.9833 9.58788 59.5399 9.49687C57.7236 9.12828 55.9027 8.7961 54.077 8.49576ZM76.9334 12.887C76.8249 13.3602 76.589 13.8745 76.589 13.8745C76.9004 13.9928 77.207 14.1065 77.5137 14.2248C77.3716 13.7598 77.177 13.3111 76.9334 12.887ZM31.1592 6.49354C28.1164 6.44804 25.0689 6.47534 22.0308 6.63461C20.6486 7.4537 19.2993 8.31829 17.9973 9.24659C16.6906 10.184 15.4263 11.1806 14.2422 12.2545C14.2422 12.2545 12.8316 13.5559 12.4731 13.9882C15.1904 13.6424 17.9171 13.424 20.6486 13.292C22.5261 11.8768 24.5075 10.589 26.536 9.39676C28.2957 8.3638 30.1025 7.40364 31.9376 6.50719L31.1592 6.49354ZM75.6219 11.1715C75.4049 12.0543 74.5935 13.16 74.5935 13.16C75.1643 13.3557 75.7305 13.5605 76.2966 13.7698C76.6551 13.1418 76.7353 12.5548 76.7353 12.5503C76.4192 12.0543 75.6219 11.1715 75.6219 11.1715ZM43.9579 7.18522C41.0236 8.46391 38.1506 9.86546 35.3437 11.3853C34.32 11.945 33.3104 12.5139 32.3056 13.1009C34.8436 13.1373 37.3816 13.2146 39.915 13.3329C40.816 13.3739 41.7123 13.4194 42.6087 13.474L43.4106 13.0645C46.444 11.5355 49.5151 10.0748 52.6098 8.65958C52.8268 8.55947 53.0486 8.46391 53.2656 8.3547C50.1803 7.86779 47.0715 7.481 43.9579 7.18522ZM32.9708 6.5345C30.8715 7.54926 28.8193 8.65503 26.8238 9.84726C25.3258 10.7425 23.8639 11.6928 22.4412 12.6959C22.1818 12.8779 21.927 13.0645 21.6723 13.251C24.8566 13.1145 28.0362 13.069 31.2206 13.0963C32.4896 12.3409 33.7727 11.622 35.0748 10.9257C37.66 9.55148 40.3018 8.27279 42.9908 7.10331C42.2218 7.03505 41.4529 6.9759 40.6839 6.91674C38.1176 6.72562 35.5418 6.5982 32.9708 6.5345ZM73.3481 9.41951C73.183 9.87001 72.716 10.8802 71.6026 11.9769L71.4469 12.1225C72.381 12.4183 73.3104 12.7186 74.235 13.0372C75.1219 11.9951 75.3672 10.9212 75.3625 10.9166C74.7492 10.3487 74.0738 9.84675 73.3481 9.41951ZM70.3289 8.01341C69.1967 9.7608 67.4323 10.9439 67.4323 10.9485C67.9229 11.085 68.4136 11.2215 68.8995 11.3626C69.6118 11.5673 70.3194 11.7812 71.0271 11.9996C71.1309 11.9041 71.2299 11.8085 71.329 11.713C72.4471 10.6163 72.9046 9.66069 73.065 9.26025C73.0132 9.22839 72.9613 9.19654 72.9094 9.16924C72.4187 8.90076 71.9093 8.65958 71.3903 8.44116C71.0365 8.29554 70.6827 8.15448 70.3289 8.01341ZM66.3473 6.58455C65.8661 7.0214 64.6018 8.11352 63.229 8.91441C62.8374 9.14648 62.4412 9.37401 62.0449 9.60153C62.795 9.7699 63.5451 9.94737 64.2904 10.1294C65.1726 10.3433 66.0501 10.5708 66.9228 10.8074C68.9561 9.49232 70.0081 7.886 70.0081 7.886C69.942 7.86324 69.876 7.83594 69.81 7.80864C68.7532 7.39909 67.6776 7.02595 66.602 6.66646L66.3473 6.58455ZM61.5024 5.13749L57.45 6.95314C56.5678 7.34904 55.6857 7.75403 54.8082 8.15903C56.4263 8.43661 58.035 8.74149 59.639 9.07368C60.2381 9.20109 60.8325 9.33305 61.4316 9.46502C61.96 9.16924 62.4883 8.8689 63.012 8.56402C64.6018 7.64482 65.5595 6.82573 65.9557 6.45714C65.0877 6.17501 64.2197 5.91108 63.3517 5.65625C62.7384 5.47878 62.1204 5.30586 61.5024 5.13749ZM23.7385 0.6416C22.3091 0.778115 20.8844 0.991988 19.4833 1.29687C17.2708 1.78378 15.1102 2.4982 13.0958 3.49021C11.0861 4.48677 9.21327 5.76091 7.6612 7.33994C7.30739 7.69942 6.97716 8.06802 6.66108 8.45026C6.91583 8.3729 7.17058 8.29554 7.43004 8.22273C8.199 8.00431 8.97267 7.80864 9.75107 7.63572C10.5295 7.4628 11.3126 7.31263 12.1004 7.17157L12.4212 7.11696C13.86 5.99754 15.3791 4.97368 16.95 4.03627C18.1813 3.29909 19.455 2.61652 20.7476 1.984C21.7289 1.5062 22.7243 1.0557 23.7385 0.6416ZM54.1242 3.3719C51.02 4.34571 47.9678 5.48788 44.9769 6.75292L44.892 6.78933C47.9442 7.10786 50.987 7.5174 54.0157 8.02251C55.096 7.53106 56.181 7.0487 57.266 6.5709L59.6059 5.55159L60.941 4.98278C60.6485 4.90542 60.3513 4.82806 60.0541 4.7507C58.0869 4.24104 56.1102 3.786 54.1242 3.3719ZM29.6449 0.482333C28.5033 0.464131 27.3616 0.445929 26.2294 0.486883C25.8331 0.500535 25.4369 0.518737 25.0406 0.541489C23.7385 1.083 22.0402 1.83383 20.9552 2.37534C19.6768 3.01696 18.4266 3.70864 17.2048 4.44127C15.9122 5.22395 14.6526 6.05669 13.4449 6.95314C16.148 6.52995 18.8748 6.26602 21.6062 6.1113C21.7477 6.1022 21.8846 6.09765 22.0214 6.08855C23.3659 5.31496 24.7339 4.58233 26.1256 3.90431C27.5928 3.18533 29.0835 2.51641 30.6073 1.91574C31.664 1.49709 32.867 1.05115 34.0275 0.655252L33.0604 0.600646C32.4896 0.573343 31.9235 0.54604 31.3526 0.527838C30.7865 0.505085 30.2157 0.491434 29.6449 0.482333ZM45.2033 1.80198C42.1287 2.72261 39.1122 3.81506 36.1692 5.07379C35.4569 5.37867 34.7493 5.69721 34.0464 6.02484C36.273 6.10675 38.5044 6.23416 40.7264 6.40708C41.802 6.49354 42.8776 6.5891 43.9484 6.69376C44.2268 6.5709 44.5098 6.45259 44.7929 6.33428C47.5998 5.16935 50.4634 4.11818 53.3788 3.21718C50.6691 2.66564 47.9427 2.19369 45.2033 1.80198ZM35.0512 0.723509C33.6548 1.21496 32.0272 1.82018 30.7865 2.33439C29.2864 2.9578 27.8051 3.62218 26.3473 4.33206C25.2434 4.87812 24.149 5.44238 23.0781 6.04304C25.7765 5.92473 28.4749 5.90198 31.1734 5.94748C31.7914 5.95658 32.4094 5.97479 33.0274 5.99299C34.0039 5.53339 34.9851 5.09199 35.9758 4.66424C38.6689 3.50997 41.4303 2.51015 44.2457 1.67001C42.7927 1.46979 41.3397 1.29232 39.8819 1.14215C38.2733 0.969236 36.6646 0.832721 35.0512 0.723509Z" fill="white"/>
</svg>
