<svg width="58" height="58" viewBox="0 0 58 58" fill="none" xmlns="http://www.w3.org/2000/svg">
<path d="M51.3703 16.5196C49.5967 16.5196 48.1587 17.9569 48.1587 19.7304C48.1587 21.5039 49.5967 22.9412 51.3703 22.9412C53.1438 22.9412 54.5811 21.5039 54.5811 19.7304C54.5811 17.9569 53.1438 16.5196 51.3703 16.5196ZM47.6426 24.4359C47.6743 24.551 47.5719 24.6298 47.3639 24.783L47.2373 24.8528L47.2799 24.9368C47.3091 24.9901 47.2604 25.0723 47.1718 25.1158L46.9815 25.2121C46.8947 25.2574 46.8009 25.2474 46.7735 25.1926L46.7337 25.1156L46.4949 25.2334L46.5329 25.3149C46.5594 25.3698 46.5089 25.4493 46.4187 25.491L46.2248 25.5802C46.1364 25.6219 46.0435 25.6097 46.0168 25.5531L45.9824 25.4803C45.2408 25.8299 44.4132 26.199 43.5575 26.5955L43.605 26.7051C43.6336 26.7591 43.5804 26.8379 43.4938 26.8796L43.299 26.9698C43.2097 27.0105 43.1159 26.9972 43.0919 26.9432L43.0407 26.8352L42.7663 26.9679L42.8184 27.0787C42.8433 27.1345 42.7935 27.2124 42.7033 27.2548L42.5105 27.344C42.4201 27.3857 42.3281 27.3735 42.3025 27.3184L42.252 27.2113C41.8653 27.3662 41.4414 27.4317 41.1326 26.8565C41.0016 26.5882 40.9944 25.9758 40.8936 25.6475C40.8414 25.4776 40.6432 25.4484 40.6432 25.4484C36.8775 24.7245 35.6022 25.53 33.1895 24.9325C32.4294 24.7458 32.0168 24.0491 31.0825 24.0387C29.0514 23.9775 28.4414 24.0068 26.2306 23.9227C26.1369 24.2431 26.1237 24.3129 26.1237 24.3129L18.3533 24.2766L19.5418 24.8589L19.9231 28.2868C19.9231 28.2868 19.6091 28.3778 19.5171 28.3885C19.5924 29.0788 19.6649 29.9973 19.7029 30.8302C19.7365 31.5771 19.7763 32.3567 19.7684 32.8534C19.7648 33.0108 19.763 33.3754 19.5489 33.7791C19.4084 34.0446 19.1621 34.2614 18.9675 34.4101C18.8975 34.4631 18.5966 34.6659 18.2489 34.8702C17.9306 35.0566 17.6059 35.2317 17.2753 35.3952C17.2966 35.4915 17.3594 35.5855 17.385 35.6614C12.66 37.9429 6.80223 38.7227 4.90545 42.3522C4.68614 42.7725 3.91605 42.553 3.89385 42.1016C3.88662 41.8574 3.88782 41.6131 3.89748 41.3689L3.82951 41.3662C3.76743 41.3635 3.72144 41.2822 3.72665 41.1829L3.73458 40.9697C3.74002 40.8723 3.79303 40.7953 3.8533 40.7989L3.93486 40.8034C3.95955 40.5918 3.9992 40.3829 4.05494 40.1813L3.98334 40.1555C3.9258 40.1344 3.90722 40.0431 3.93916 39.9502L4.01076 39.7511C4.04452 39.6573 4.1152 39.6006 4.17547 39.6201L4.24525 39.6457C4.58328 38.8591 5.23397 38.5068 5.53666 37.7659L5.48795 37.7482C5.42677 37.7272 5.4082 37.635 5.44195 37.5439L5.51264 37.3422C5.54617 37.2509 5.6189 37.1927 5.67803 37.2138L5.72946 37.2315C5.77364 37.1227 5.82779 37.0022 5.88602 36.8855L5.82326 36.8429C5.76934 36.8085 5.77024 36.7156 5.82326 36.6331L5.94016 36.4534C5.99046 36.3721 6.07384 36.3322 6.12685 36.366L6.15336 36.3809L6.18168 36.3889C6.19595 36.388 6.20388 36.38 6.22065 36.3712C6.25078 36.3377 6.28341 36.3057 6.31354 36.2792C6.62506 36.0368 7.00478 36.0776 7.3163 36.2649C7.61288 36.4455 8.7722 37.1057 9.89073 36.1014C11.7316 34.4481 13.8866 32.202 15.5072 32.1241C15.0672 31.1779 14.3042 29.193 14.2176 28.4601L13.6725 28.3434C13.3902 27.7353 12.6999 24.9182 12.505 22.8015C12.505 22.8015 12.2739 20.5207 12.4953 19.7189C12.3714 19.7057 12.1414 19.8942 12.0784 19.8951C11.7812 19.1683 12.7459 13.0221 13.6972 11.2316L15.1592 10.6502C15.0079 10.6317 13.9512 10.5838 11.1731 10.3573C9.6243 11.728 7.83219 13.2088 6.92503 14.0133C6.77097 14.1257 6.51178 15.0052 6.51178 15.0052C6.51178 15.0052 6.05073 15.4089 5.62592 15.7062C5.06405 16.1002 3.68881 16.4036 3.39043 15.9382C3.32133 15.8222 3.3347 15.7717 3.40017 15.7044C3.61337 15.4815 4.41789 15.0972 4.68863 14.5886C4.25069 14.8079 3.7595 15.0442 3.37706 15.0036C3.20895 14.9939 3.12399 14.584 3.33991 14.5088C3.92398 14.261 4.38595 14.1549 4.73032 13.6705C5.06042 13.2061 5.46574 12.8937 5.99499 12.883C5.99499 12.883 8.57735 9.50858 10.0996 7.90656C10.521 7.46771 11.3024 7.61294 11.3024 7.61294L11.4343 7.10136C11.4343 7.10136 16.655 6.47922 19.0826 7.28351C19.0251 5.80836 19.6877 3.84883 21.9969 3.84973C23.1845 3.84973 24.9297 4.89872 25.1633 6.1729C25.2351 6.56486 25.0093 6.82518 24.8892 7.3209C24.683 8.07218 24.9696 8.90412 24.8819 9.16602C24.814 9.38012 24.5715 9.36336 24.3615 9.6554C24.134 9.97236 23.8846 10.5555 23.8846 10.5555L23.5697 11.2617L21.9411 11.1448C21.3464 12.429 20.1232 15.0469 19.6975 17.6408H19.6993C20.9771 17.7507 26.7681 18.5879 26.7681 18.5879L26.9078 19.0596C26.9078 19.0596 29.3479 19.3525 31.3444 20.302C31.7903 20.4108 32.9133 20.2438 33.649 20.5827C33.6984 20.5526 33.8205 20.4287 33.8658 20.3951C36.4704 21.196 38.6218 22.5615 41.1317 23.1678C41.1317 23.1678 42.3053 23.4537 42.6999 23.5305C43.6282 23.7111 44.2238 23.7492 44.715 23.789C45.5195 23.8527 45.9656 23.8405 46.5533 23.8749C46.9702 23.8987 47.4781 23.8296 47.6426 24.4359Z" fill="white"/>
<path d="M57.7999 0.0928955H0V46.3329H57.7999V0.0928955ZM56.6671 1.22571V45.2001H1.13281V1.22571H56.6671Z" fill="white"/>
<path d="M54.7937 52.6581L53.8927 55.467H55.6857L54.7937 52.6581ZM55.9981 56.5912H53.5635L53.1262 57.8928H51.5837L53.8041 51.6775H55.784L57.9955 57.8928H56.4354L55.9981 56.5912ZM50.9306 54.2989V57.6787C50.3508 57.8751 49.5837 58 48.7809 58C46.6232 58 45.6063 57.0461 45.6063 54.7805C45.6063 52.5332 46.6232 51.5615 48.7809 51.5615C49.5481 51.5615 50.2792 51.6861 50.8322 51.9093V53.113C50.2262 52.9075 49.5481 52.7829 48.9056 52.7829C47.6037 52.7829 47.1941 53.3085 47.1941 54.7803C47.1941 56.315 47.6214 56.823 48.8525 56.823C49.124 56.8237 49.3951 56.8056 49.6641 56.7688V55.3777H48.5136V54.2989H50.9306ZM42.9531 51.6775H44.5046V57.8928H42.9531V51.6775ZM37.7643 51.6775H39.3165V56.707H41.9832V57.8928H37.7643V51.6775ZM32.0912 57.652V56.4387C32.84 56.6884 33.509 56.7786 34.1693 56.7786C34.8827 56.7786 35.1951 56.591 35.1951 56.1095C35.1951 55.6902 35.0615 55.5653 34.4905 55.4493L33.4551 55.2352C32.3762 55.0123 32.0196 54.5759 32.0196 53.5138C32.0196 52.1499 32.8223 51.5615 34.4366 51.5615C35.1677 51.5615 35.8544 51.6861 36.4163 51.9005V53.113C35.7473 52.881 35.1321 52.7829 34.5261 52.7829C33.7587 52.7829 33.5002 52.9882 33.5002 53.4694C33.5002 53.8704 33.6792 53.9864 34.1781 54.0936L35.1854 54.3077C36.3544 54.5574 36.6748 54.9502 36.6748 56.0645C36.6748 57.3937 35.8544 58 34.1781 58C33.4472 58 32.7417 57.884 32.0914 57.6522L32.0912 57.652ZM26.7575 51.6775H31.1097V52.8634H28.3097V54.174H30.6374V55.3424H28.3097V56.707H31.1727V57.8928H26.7575V51.6775ZM22.8368 56.707C23.7458 56.707 24.0403 56.2344 24.0403 54.7803C24.0403 53.336 23.7458 52.8636 22.8368 52.8636H21.6587V56.707H22.8368ZM20.1074 51.6773H22.881C25.0574 51.6773 25.6281 52.5686 25.6281 54.7803C25.6281 56.9299 25.0032 57.8928 22.881 57.8928H20.1074V51.6773ZM18.8303 51.6773V57.8928H16.9401L14.2999 53.3978V57.8928H12.8556V51.6775H14.746L17.386 56.1716V51.6775L18.8303 51.6773ZM6.14913 55.8687V51.6773H7.70041V55.8238C7.70041 56.5103 8.01306 56.7688 8.85089 56.7688C9.68917 56.7688 10.0016 56.5106 10.0016 55.8238V51.6775H11.5529V55.8689C11.5529 57.3309 10.706 58 8.85089 58C6.99602 58 6.14913 57.3309 6.14913 55.8689V55.8687ZM3.62953 56.0468C3.62953 55.4758 3.39753 55.2352 2.87191 55.2352H1.48081V56.8407H2.87191C3.42404 56.8407 3.62953 56.6087 3.62953 56.0468ZM1.48059 54.2723H2.78241C3.2992 54.2723 3.5312 54.0494 3.5312 53.5138C3.5312 52.9528 3.31801 52.7288 2.78241 52.7288H1.48059V54.2723ZM5.13663 56.1981C5.13663 57.3044 4.61984 57.8928 3.21968 57.8928H0V51.6775H3.10391C4.54802 51.6775 5.04713 52.2473 5.04713 53.3006C5.04713 54.1024 4.74445 54.4679 3.88781 54.682L3.72763 54.7273L3.87014 54.7538C4.83394 54.9679 5.13663 55.3247 5.13663 56.1981Z" fill="white"/>
</svg>
