<svg width="36" height="51" viewBox="0 0 36 51" fill="none" xmlns="http://www.w3.org/2000/svg">
<path fill-rule="evenodd" clip-rule="evenodd" d="M17.9826 0.0905762C8.19542 0.0905762 0.206543 8.17816 0.206543 18.1367C0.206543 28.0953 8.16606 36.1828 17.9826 36.1828C27.7699 36.1828 35.7587 28.0953 35.7587 18.1367C35.7587 8.17816 27.7993 0.0905762 17.9826 0.0905762ZM31.5727 6.97109C31.4843 7.03146 31.4547 7.09182 31.4253 7.15218C31.3958 7.18237 31.3958 7.21255 31.3663 7.24273C31.3369 7.30309 31.3074 7.33327 31.278 7.39364C31.2485 7.42382 31.219 7.454 31.1896 7.454L31.1012 7.54455C31.0423 7.60491 30.9832 7.63509 30.9243 7.66527C30.8063 7.75582 30.7474 7.84636 30.6295 7.93691C30.5411 7.99727 30.4526 8.118 30.3642 8.17836C30.3347 8.20854 30.3053 8.20854 30.3053 8.23872C30.2169 8.32927 30.1579 8.38963 30.0694 8.44989C29.9809 8.51016 29.922 8.57062 29.8335 8.63099C29.7451 8.69135 29.6861 8.75171 29.5682 8.72153C29.5093 8.72153 29.4208 8.72153 29.3913 8.78189C29.3324 8.9328 29.185 8.96298 29.067 8.99306C29.0376 9.02325 28.9786 9.05343 28.9491 9.08361C28.8607 9.20434 28.8017 9.32506 28.7722 9.47597V9.56652C28.8606 9.80797 28.7427 10.0191 28.7133 10.2606C28.8607 10.653 28.7427 11.015 28.5364 11.3772C28.3595 11.7091 28.448 12.0109 28.7133 12.2826C28.8312 12.4033 29.0081 12.4637 29.1555 12.5843C29.0671 12.6446 29.0081 12.705 28.9196 12.7654C29.067 12.8559 29.126 12.8257 29.1849 12.6145C29.2438 12.6748 29.3028 12.7654 29.3028 12.9162C29.3028 12.9464 29.3323 12.9765 29.3618 12.9765C29.4502 12.9765 29.4797 13.0671 29.5681 13.1275C29.6565 13.1576 29.7155 13.1576 29.804 13.1576C30.2168 13.1878 30.5704 13.0067 30.9832 12.9163C31.2781 12.8559 31.5728 12.8861 31.8676 12.9163C32.1035 12.9766 32.3688 12.8861 32.6046 12.9766C32.4572 13.218 32.4866 13.3388 32.7225 13.4896C32.8109 13.55 32.8994 13.6104 33.0174 13.6707C33.1943 13.6707 33.2826 13.8216 33.3711 13.9423C33.2237 13.9121 33.0468 13.8517 32.8995 13.8215C32.7816 13.7913 32.6636 13.8517 32.5458 13.9121C32.3983 14.0328 32.2509 14.0026 32.1035 14.0026C31.9561 14.2742 31.9561 14.2742 31.6907 14.1535C31.6024 14.1233 31.4844 14.063 31.3959 14.0026C31.0716 13.8517 30.7474 13.6404 30.3346 13.7914C30.1283 13.8518 29.9219 13.882 29.7155 13.9122C29.3027 13.9725 29.2143 14.0933 29.2439 14.5459V14.6364C29.185 14.9684 29.2144 15.0288 29.5387 15.1192C29.6567 15.1494 29.6862 15.2098 29.6567 15.3304C29.5683 15.6322 29.4798 15.9339 29.3619 16.2056C29.2735 16.5074 29.0966 16.5376 28.8903 16.2961C28.8313 16.2358 28.8313 16.1754 28.8019 16.115L28.625 15.6624C28.5955 15.5719 28.5366 15.5115 28.4186 15.5115C28.2712 15.5417 28.0649 15.5417 27.947 15.6624C27.6522 15.9642 27.3869 16.2659 27.2395 16.6583C27.1216 17.0205 27.1216 17.3826 27.1216 17.7446C27.1216 17.8654 27.1216 17.986 27.0626 18.1068C27.0332 18.1672 26.9743 18.2276 26.9152 18.137C26.8268 17.9861 26.7089 18.0465 26.5909 18.0766C26.3846 18.1068 26.2666 18.2276 26.1782 18.3785C26.0897 18.5294 25.9423 18.5896 25.7949 18.5896C25.5886 18.5896 25.5297 18.5293 25.5886 18.3181C25.6475 18.137 25.6181 18.0767 25.4117 18.0466C25.058 17.9862 24.6747 17.9258 24.321 18.0164C24.321 18.0466 24.2915 18.0767 24.2915 18.0767L23.584 16.2962C23.6135 16.2962 23.6135 16.3264 23.643 16.3264C23.7609 16.3264 23.8494 16.3264 23.9379 16.3566C24.1442 16.3868 24.2622 16.3264 24.38 16.1152L24.8222 15.3004C24.94 15.1193 25.0285 14.9081 24.999 14.6969C24.999 14.6365 25.0285 14.5762 25.058 14.5158C25.1759 14.3649 25.2348 14.1838 25.1759 13.9726C25.1464 13.8821 25.1464 13.7313 25.2643 13.7313C25.4117 13.7011 25.5296 13.6407 25.6475 13.5502C25.7064 13.52 25.7655 13.4596 25.8539 13.4898C26.0602 13.5804 26.1782 13.5502 26.2961 13.3691C26.4435 13.1579 26.4141 13.0673 26.1487 13.0371C25.8834 13.0371 25.6181 12.9466 25.4117 12.7354C25.5591 12.7052 25.677 12.7354 25.7655 12.8259C26.0014 13.0371 26.2371 13.0673 26.5024 12.9768C26.6499 12.8259 26.8267 12.6751 26.7973 12.4639C26.7089 12.1621 26.6793 11.8301 26.4141 11.5887C26.2077 11.4076 26.2077 11.3775 26.0013 11.5887C25.9718 11.649 25.9129 11.7094 25.8244 11.7396C25.8833 11.6792 25.9424 11.649 25.9718 11.5585C26.0602 11.1964 26.0898 10.8644 26.1782 10.5023C26.2076 10.4118 26.2076 10.2912 26.2961 10.2307C26.4435 10.1703 26.473 10.0194 26.532 9.89881C26.65 9.65736 26.5615 9.29528 26.8858 9.11419C26.9152 9.11419 26.9152 9.05383 26.9447 9.02364C26.9742 8.96328 26.9447 8.87274 27.0331 8.87274C27.1805 8.84256 27.269 8.72183 27.3868 8.63128C27.5932 8.42011 27.8291 8.2692 28.0943 8.20874L28.625 8.02765C28.8019 7.96729 28.9198 7.87674 29.0378 7.75602C29.1262 7.66547 29.2146 7.60511 29.303 7.51456L29.421 7.39384C29.5094 7.30329 29.6569 7.27311 29.6273 7.09212C29.5979 7.03176 29.5979 6.94121 29.5979 6.88085C29.5684 6.76012 29.5389 6.63939 29.5979 6.48849C29.6568 6.39794 29.7158 6.36776 29.7747 6.27731C29.8042 6.21695 29.8631 6.15659 29.8631 6.09622C29.8926 6.03586 29.8631 5.94532 29.9221 5.85487L29.981 5.79451C30.0104 5.76433 30.0399 5.76433 30.0694 5.73414C30.0988 5.70396 30.1873 5.70396 30.2463 5.6436C30.2757 5.61342 30.2757 5.55305 30.3346 5.55305H30.3641C30.7769 6.03586 31.1896 6.48859 31.5728 6.97139L31.5727 6.97109ZM24.9987 33.0444C24.7924 33.0143 24.645 32.8634 24.4681 32.8031C24.4976 32.8031 24.5565 32.8031 24.586 32.8333C24.7628 32.8635 24.8808 32.9238 24.9987 33.0444ZM24.2912 32.803C24.2618 32.803 24.2322 32.803 24.2028 32.7728H24.2619C24.2619 32.803 24.2913 32.803 24.2913 32.803H24.2912ZM23.9375 33.3462C23.9669 33.4065 23.9965 33.4367 23.9965 33.4971L23.9375 33.3462ZM23.8491 33.0143V33.1954L23.1121 31.445L21.6382 30.9923C21.6382 30.9923 21.6382 30.9621 21.6676 30.9319C21.6676 30.781 21.7266 30.6604 21.874 30.6C22.0213 30.5397 22.1098 30.6302 22.1982 30.7208C22.2866 30.8113 22.3751 30.9319 22.4341 31.0527C22.4635 31.113 22.5224 31.2337 22.6109 31.1734C22.6993 31.1432 22.7288 31.0225 22.6993 30.932C22.6993 30.9018 22.6699 30.8415 22.6699 30.8113C22.6108 30.6906 22.5815 30.57 22.5224 30.4492L22.3456 30.2681C22.1392 30.087 21.9034 29.9061 21.697 29.7249C21.6086 29.6645 21.5496 29.6041 21.6086 29.4835C21.697 29.212 21.6676 29.1818 21.3728 29.1818C21.1664 29.1818 21.019 29.0912 20.9012 28.9404C20.7538 28.7293 20.6063 28.4877 20.6063 28.2162C20.5769 27.7937 20.4295 27.4316 20.1052 27.1298C19.9578 26.9487 19.8988 26.7678 20.0462 26.5565C20.1052 26.4659 20.1345 26.4056 20.1052 26.285C20.0462 26.1039 20.1346 26.0134 20.3115 25.9832C20.3999 25.9531 20.4884 25.9229 20.5769 25.9229C20.7832 25.8927 20.8127 25.9531 20.7832 26.134C20.7832 26.1944 20.7538 26.2548 20.7538 26.3151C20.7538 26.466 20.7832 26.6169 20.9306 26.6772C21.0781 26.7376 21.1075 26.5565 21.196 26.4961C21.3139 26.3754 21.3729 26.4358 21.4023 26.5565C21.4318 26.6168 21.4318 26.6772 21.4318 26.7376C21.3728 26.9789 21.6382 27.2205 21.5202 27.4618V27.492C21.6971 27.7937 21.815 28.1257 22.1982 28.1861C22.3457 28.2163 22.5225 28.337 22.4931 28.4576C22.4636 28.699 22.6109 28.699 22.7289 28.7895C22.8468 28.8801 22.9352 29.0007 23.0237 29.0912L23.3775 29.6345C23.5249 29.8156 23.5543 29.9664 23.4069 30.1476C23.3775 30.2381 23.3775 30.3287 23.3775 30.389V30.4493C23.2301 30.8114 23.2891 31.1132 23.5249 31.415C23.6427 31.5659 23.6723 31.7469 23.7607 31.9281C23.8491 32.079 23.967 32.2298 23.8491 32.411C23.8491 32.4412 23.8785 32.4714 23.8785 32.5016C23.9376 32.6223 23.9376 32.7731 24.1143 32.8033H24.2027C23.9669 32.7731 23.8784 32.8637 23.849 33.0145L23.8491 33.0143ZM17.5404 30.0267C17.5994 29.725 17.7173 29.4231 17.6583 29.1213C17.6288 28.88 17.5108 28.8196 17.3045 28.9704C17.1866 29.061 17.0687 29.1816 16.8917 29.061C16.8623 29.3929 16.9507 29.6947 16.8622 29.9663C16.8032 30.1775 16.7444 30.3888 16.8328 30.6302C16.8622 30.6302 16.8623 30.6302 16.8918 30.6604L13.7965 31.9882L11.3202 30.2982C11.3497 30.268 11.3792 30.2379 11.4086 30.2379C11.497 30.0568 11.6445 29.9663 11.7918 29.8758C11.9687 29.7852 11.9982 29.6646 11.8508 29.5137C11.8214 29.4835 11.7918 29.4533 11.7918 29.4231C11.7328 29.2421 11.8508 29.1214 11.9392 29.0309C12.1161 28.8197 12.3224 28.6386 12.4993 28.4274C12.5877 28.3368 12.7057 28.2463 12.8236 28.2162L13.8849 27.8541C14.1797 27.7636 14.2977 27.5222 14.2681 27.2204C14.2091 26.8281 14.6219 26.4961 14.9756 26.5867C15.2704 26.6772 15.5063 26.7978 15.7422 26.9789C15.919 27.1298 16.0959 27.1298 16.3022 27.0393C16.5676 26.9186 16.8034 26.7376 17.0688 26.7074C17.2457 26.6772 17.3931 26.647 17.5404 26.5565C17.7467 26.4358 17.8647 26.4659 18.012 26.6772L18.1299 30.0572L17.4223 30.3589L17.4518 30.3287C17.4813 30.208 17.5402 30.1175 17.5402 30.027L17.5404 30.0267ZM6.86889 27.2806L6.66254 22.5426L10.9665 20.7923L10.8486 20.5208L6.54459 22.2711L3.53776 18.5894L5.8961 10.3209L10.377 8.57052L12.4701 11.4072C12.411 11.5581 12.4406 11.7996 12.1752 11.7996V11.8297C12.2343 12.0409 11.9983 12.1616 12.0573 12.373C12.1163 12.373 12.1752 12.4032 12.1457 12.4636C12.0573 12.6446 12.0277 12.8559 11.8508 12.9464C11.7329 12.886 11.7624 13.0671 11.7034 13.0671C11.556 13.1275 11.6444 13.218 11.674 13.2783C11.7035 13.3385 11.733 13.3688 11.7919 13.3386C11.9099 13.3084 11.7624 13.1877 11.8509 13.1575C11.91 13.3386 12.0573 13.1877 12.1752 13.2179C12.1162 13.3688 12.0573 13.5197 11.9983 13.6404C11.8215 13.6103 11.7035 13.6706 11.6446 13.8215C11.733 13.9121 11.8215 13.6404 11.9099 13.8215C11.8215 14.0026 11.7624 14.1535 11.674 14.3345C11.674 14.3345 11.7034 14.3345 11.7034 14.3647C11.7918 14.2742 11.8803 14.1836 11.9983 14.0932V14.0328C12.0277 13.9724 12.0866 13.9423 12.1162 13.8819C12.1752 13.8517 12.2342 13.7612 12.3225 13.8517C12.3816 13.9423 12.352 14.0026 12.2931 14.0629C12.2636 14.1232 12.2341 14.1836 12.2636 14.244C12.3226 14.5155 12.1457 14.6966 11.9983 14.8475C11.8804 14.9682 11.8804 15.0286 11.9393 15.1493C12.0573 15.089 12.0867 15.089 12.1752 15.1795C12.2343 15.2399 12.2636 15.27 12.3226 15.1795C12.3521 15.1191 12.411 15.1493 12.4701 15.1493L12.0868 16.5978H12.0574C12.0279 16.5677 11.9983 16.5073 11.91 16.5073C11.9394 16.5677 11.9394 16.628 11.9983 16.6582C11.9983 16.6884 12.0278 16.7488 12.0278 16.7789L11.9394 16.8997C11.851 16.9298 11.792 16.9902 11.7035 17.0506C11.7919 17.0807 11.8509 17.0807 11.9099 17.1109L11.733 17.7446L11.2908 17.9257C11.2318 17.9559 11.0845 17.9257 11.1434 18.0766C11.2024 18.1974 11.2614 18.2276 11.3793 18.1974C11.4677 18.1672 11.5562 18.1672 11.5857 18.2276L11.3793 18.9518C11.3203 19.0424 11.2319 19.1027 11.1434 19.163C10.9665 19.3139 10.7897 19.4648 10.5833 19.6156C10.7897 19.7665 10.9076 19.6156 11.0255 19.5251C11.1139 19.4647 11.1729 19.4043 11.2318 19.4949L10.937 20.6114L11.4087 20.9434C11.2318 20.9434 11.0549 20.9434 10.9075 20.9736C10.7306 21.0038 10.6716 21.1245 10.7601 21.2754C10.7746 21.3033 10.7822 21.3344 10.7822 21.3659C10.7822 21.3975 10.7746 21.4286 10.7601 21.4565C10.7011 21.6074 10.7896 21.7583 10.937 21.7885C11.3202 21.9092 11.674 22.06 11.8803 22.4524C11.9098 22.4826 11.9393 22.5127 11.9687 22.5127C12.0866 22.5127 12.0571 22.5731 11.9982 22.6335C11.9391 22.9353 11.9687 23.2068 12.2634 23.3879C12.3224 23.4483 12.3814 23.5086 12.3518 23.5991C12.2928 23.9009 12.3518 24.2026 12.1749 24.4743C12.1455 24.5346 12.1159 24.595 12.1159 24.6553C12.1749 24.9873 11.9685 25.2287 11.8506 25.5003C11.7623 25.6512 11.6443 25.7115 11.4674 25.7115C11.379 25.7115 11.2905 25.6813 11.1726 25.6511C10.1703 25.3493 9.16801 25.0476 8.1362 24.776C7.98879 24.7458 7.87093 24.7458 7.78245 24.8665C7.69406 24.9571 7.60557 24.9872 7.48762 24.9571C7.39923 24.9269 7.3402 24.9571 7.28127 24.9872C7.13386 25.0778 7.1044 25.1984 7.19288 25.3796C7.22235 25.44 7.25191 25.5003 7.25191 25.5607C7.28137 25.8926 7.16352 26.1944 7.13396 26.4962C7.16342 26.7678 7.04557 26.9791 6.95708 27.2205C6.95708 27.2507 6.95708 27.2808 6.92762 27.311L6.86859 27.2808L6.86889 27.2806ZM20.0462 9.50595H19.8987C19.9871 9.38523 19.9871 9.38523 20.0462 9.50595C20.0756 9.50595 20.0756 9.47577 20.0756 9.50595C20.1346 9.50595 20.164 9.53613 20.223 9.53613C20.3409 9.53613 20.3999 9.47577 20.4588 9.41541C20.4294 9.50595 20.3114 9.50595 20.2525 9.5965C20.223 9.65686 20.1935 9.65686 20.1641 9.5965C20.1641 9.56632 20.1051 9.50595 20.0463 9.50595H20.0462ZM21.7855 11.8296C21.7855 11.7995 21.8149 11.7995 21.8149 11.8296H21.7855ZM18.4838 26.9787C18.4838 27.1899 18.4838 27.4315 18.5133 27.6426C18.5723 27.9142 18.6311 28.1859 18.8376 28.3669C18.985 28.4876 19.1029 28.6082 19.1913 28.7591L19.5451 29.3024C19.6041 29.393 19.6629 29.4835 19.7809 29.5136C20.0167 29.5438 20.1052 29.7248 20.223 29.9059C20.3704 30.1774 20.6358 30.3586 20.7537 30.6603C20.8421 30.7207 20.96 30.7508 21.019 30.8414L18.4543 30.0568L18.3365 26.7976C18.3955 26.8882 18.366 27.039 18.3955 27.1597C18.5134 27.0692 18.4839 27.0088 18.4839 26.9786L18.4838 26.9787ZM25.5884 11.8598C25.6768 11.8598 25.7653 11.7995 25.8537 11.7693C25.7357 11.7995 25.6768 11.8598 25.5884 11.8598ZM26.1484 2.44445L26.1189 2.47463C26.06 2.50481 26.0305 2.53499 25.9715 2.56517C25.9421 2.56517 25.9126 2.59535 25.8831 2.62554C25.8537 2.65572 25.8242 2.65572 25.7947 2.6859C25.7653 2.71608 25.7063 2.74626 25.6473 2.77644C25.5883 2.80662 25.5589 2.86699 25.5294 2.95753C25.5588 3.04808 25.4999 3.13862 25.4114 3.16871C25.3525 3.25925 25.4409 3.37988 25.4114 3.47052C25.382 3.53088 25.3525 3.56107 25.2935 3.59125C25.2344 3.62143 25.2051 3.65161 25.1461 3.68179C25.0871 3.71197 25.0281 3.74216 25.0281 3.80252C25.0281 3.8327 25.0281 3.8327 25.0576 3.86288C25.0281 3.89306 25.205 3.89306 25.0576 3.92325C24.9986 3.95343 24.9692 3.98361 24.9397 4.04397C24.9103 4.1647 24.8807 4.25514 24.7923 4.34569C24.7628 4.37587 24.7628 4.40605 24.7333 4.43623C24.7038 4.43623 24.6449 4.43623 24.6154 4.46642C24.586 4.46642 24.5564 4.4966 24.5564 4.52678C24.4974 4.64751 24.4385 4.73795 24.5564 4.85878C24.6154 4.91914 24.5564 4.94932 24.4974 4.9795C24.3205 5.03987 24.1436 5.07005 23.9667 5.16059C23.8489 5.25114 23.8489 5.37177 23.8783 5.49259C23.8783 5.58314 23.8783 5.67368 23.7605 5.6435C23.5542 5.58314 23.4362 5.70386 23.3183 5.85467C23.3183 5.88485 23.2889 5.88485 23.2889 5.91504L21.8149 3.92335L22.6993 1.08667C23.8195 1.35821 25.0282 1.84111 26.1484 2.44464V2.44445ZM21.4317 3.95333L22.9647 6.00538C22.8763 6.09593 22.8468 6.24673 22.7289 6.3071C22.6109 6.36746 22.611 6.48819 22.6405 6.60881C22.67 6.72954 22.6995 6.91053 22.8763 6.88045C22.9647 6.85027 23.0826 6.82009 23.1711 6.7899H23.2006C23.1416 6.82009 23.0532 6.85027 22.9942 6.85027C22.8764 6.88045 22.7584 7.00118 22.67 6.82009C22.5521 6.60891 22.4046 6.60891 22.2572 6.7899C22.2572 6.82009 22.2572 6.88045 22.1982 6.82009C22.0507 6.66918 21.9033 6.75972 21.756 6.82009C21.4317 6.97099 21.1664 7.18217 20.8422 7.27271C20.7243 7.30289 20.7243 7.39344 20.7831 7.51416C20.8126 7.57453 20.901 7.60471 20.8715 7.72544C20.7537 7.72544 20.6357 7.69525 20.5178 7.69525C20.4587 7.69525 20.3409 7.66507 20.3409 7.72544C20.3114 7.90653 20.1345 7.90653 20.0461 8.02715C19.9282 8.17806 19.8103 8.20824 19.6333 8.1177C19.5743 8.08752 19.4564 8.08752 19.4269 8.17806C19.3679 8.26861 19.3975 8.35915 19.486 8.4497C19.545 8.47988 19.6038 8.51006 19.6628 8.51006H19.3975C19.3384 8.51006 19.2796 8.54024 19.2796 8.6006C19.2796 8.75151 19.1912 8.84206 19.1322 8.96268C19.0143 9.32476 19.1027 9.38523 19.368 9.41531C19.4859 9.44549 19.6334 9.44549 19.7512 9.47567C19.5449 9.47567 19.368 9.44549 19.1617 9.47567C19.1026 9.47567 19.0733 9.50585 19.0733 9.56622C19.0733 9.5964 19.0733 9.65676 19.0438 9.68694C19.0143 9.74731 18.926 9.77749 18.9554 9.86803C18.9849 9.95858 19.0733 9.95858 19.1323 10.0189C19.1028 10.0793 19.0733 10.0793 19.0439 10.1095C18.9261 10.2302 18.8081 10.3811 19.0144 10.532C19.0735 10.5622 19.0439 10.6226 19.0144 10.6528C18.985 10.7131 18.9554 10.7735 19.0144 10.8037C19.0735 10.8338 19.1323 10.8037 19.1619 10.7433C19.304 10.628 19.4326 10.4964 19.5451 10.3509C19.6335 10.2604 19.722 10.2302 19.8694 10.2906C19.722 10.2906 19.604 10.3509 19.5156 10.4717L19.2798 10.7131C19.2208 10.7735 19.1914 10.8037 19.1914 10.8942C19.1914 10.9546 19.2798 10.9848 19.3093 11.0451C19.1619 11.1357 18.985 11.1658 18.8671 11.2563C18.8081 11.2865 18.7787 11.3468 18.7787 11.4374C18.8082 11.5279 18.8671 11.4977 18.9262 11.4977C19.044 11.4977 19.162 11.4676 19.2799 11.4977C19.2504 11.6788 19.1325 11.7694 19.0441 11.8598C19.0441 11.9504 18.9851 11.89 18.9557 11.89C18.9263 11.89 18.8967 11.89 18.8673 11.9202C18.8673 11.9504 18.8673 11.9504 18.8379 11.9805L13.3546 12.222L13.1188 11.8901C13.2957 11.7996 13.4726 11.709 13.62 11.6185C13.7674 11.5581 13.7674 11.4072 13.7674 11.2866C13.7674 11.1659 13.6496 11.196 13.5611 11.196C13.4137 11.1658 13.2662 11.1658 13.1189 11.1357C12.9421 11.1055 12.7652 11.0753 12.6178 11.2262L10.5543 8.41971L13.001 4.40605L21.4321 3.95343L21.4317 3.95333ZM11.8804 1.50891L12.7943 4.1645L10.318 8.23852L5.83708 9.98886L3.41971 8.32907C5.45376 5.25094 8.40176 2.80662 11.8803 1.50891H11.8804ZM4.3042 29.1515C2.09318 26.3148 0.707714 22.8143 0.530836 18.9817L3.30196 18.8006L6.36781 22.5124L6.57415 27.3106L4.3042 29.1515ZM17.9826 35.8509C16.3318 35.8509 14.7399 35.6096 13.2069 35.187L13.8555 32.29L18.3364 30.2983L20.9896 31.1131C21.019 31.264 21.078 31.445 21.019 31.596C20.9896 31.6262 20.9306 31.6564 20.9012 31.6866C20.8422 31.7469 20.7833 31.8375 20.7538 31.8977C20.7243 31.9279 20.7243 31.9581 20.7243 32.0185C20.3705 31.9581 20.0757 31.9883 19.7515 31.9581C19.6631 31.9581 19.5746 31.9883 19.5157 31.8676C19.4862 31.8676 19.4862 31.8374 19.4567 31.8374C19.2209 31.6563 19.0439 31.6262 18.8966 31.777C18.8671 31.9882 18.8966 32.1391 19.1029 32.2599C19.162 32.2901 19.2208 32.3505 19.2798 32.4108C19.4272 32.5014 19.5746 32.5919 19.6926 32.7125C19.7516 32.8031 19.7221 32.9237 19.8695 32.9539C20.1938 33.135 20.2823 33.0746 20.3116 32.6824C20.3116 32.5918 20.3116 32.5013 20.4 32.441C20.4884 32.2901 20.6063 32.1695 20.7243 31.9883C20.7243 32.0788 20.6948 32.1995 20.7833 32.2598C20.8718 32.3202 20.9897 32.29 21.0782 32.2296C21.1665 32.1693 21.255 32.1089 21.314 32.0486C21.4023 31.9278 21.4023 31.7468 21.5498 31.6865C21.7561 31.6261 21.8151 31.4753 21.8151 31.2942L22.9059 31.6261L24.1735 34.6439C22.2573 35.4587 20.1642 35.8509 17.9828 35.8509H17.9826ZM24.4386 34.5834L24.1733 33.9195C24.2323 33.9195 24.2617 33.9799 24.2617 34.0402L24.3501 34.2213C24.4975 34.161 24.6449 34.1006 24.7333 34.2817H24.7923C24.8513 34.1912 24.8218 34.0705 24.8513 33.9498C24.8513 33.8593 24.8513 33.7687 24.8219 33.6783C25.0577 33.7688 25.1166 33.7688 25.1756 33.5274C25.1462 33.4368 25.1756 33.286 25.0577 33.2558C25.0577 33.2558 25.0577 33.2256 25.0871 33.2558C25.1755 33.2558 25.2345 33.3162 25.323 33.3162C25.382 33.3765 25.382 33.4671 25.441 33.5274C25.6179 33.6179 25.5589 33.4368 25.6179 33.3764V33.2859C25.6179 33.0445 25.4115 32.954 25.2936 32.803L25.0872 32.5918C25.0578 32.5616 24.9988 32.5315 25.0283 32.5013C25.1462 32.4409 25.1463 32.2901 25.2936 32.2599C25.323 32.1996 25.2936 32.1392 25.2641 32.0788C25.1757 31.8375 25.1167 31.5959 25.2052 31.3546C25.2936 31.4753 25.3821 31.6261 25.4704 31.7468C25.6473 31.7468 25.8242 31.8072 25.9421 31.6261C25.9715 31.5959 25.9715 31.5657 25.9715 31.5356C25.8831 31.3847 25.9126 31.3244 26.0895 31.264C26.2369 31.2037 26.3843 31.2037 26.5317 31.264C26.6201 31.2942 26.7086 31.3546 26.797 31.3848C26.8854 31.4149 26.9444 31.4753 27.0329 31.5055C27.0623 31.5357 27.0918 31.5357 27.1508 31.5658C27.2983 31.6262 27.3277 31.6866 27.1803 31.8072C27.1214 31.8374 27.0919 31.8977 27.0919 31.9581C27.0919 31.9883 27.0919 32.0185 27.1214 32.0487C27.1803 32.0788 27.2098 32.0788 27.2688 32.0487C27.2393 32.0788 27.2099 32.0788 27.1804 32.109C27.1215 32.1694 27.092 32.2297 27.0624 32.3202C27.0329 32.4106 26.9445 32.4711 27.0035 32.5615C27.1804 32.5917 27.3278 32.6521 27.2394 32.8633C27.2689 32.9236 27.2689 33.0142 27.3574 33.0142C27.7996 32.7426 28.2418 32.4408 28.625 32.1088C28.507 31.9881 28.3007 31.9881 28.1534 31.9277C27.947 31.9881 27.7702 32.0183 27.5638 31.9579C27.4754 31.9579 27.4164 31.9579 27.3575 31.9881C27.5343 31.8674 27.7407 31.7769 27.9176 31.6864C28.006 31.626 28.0944 31.5958 28.1828 31.626C28.2712 31.626 28.3597 31.6562 28.4481 31.6864C28.5365 31.6864 28.625 31.7166 28.7134 31.7166C28.8903 31.7467 28.9493 31.6562 28.9493 31.4752C28.9198 31.445 28.9198 31.4148 28.8903 31.3847C28.8314 31.3545 28.802 31.3243 28.7429 31.2639L28.684 31.2036C28.5366 31.1432 28.5661 30.9924 28.5661 30.8717C28.5661 30.7811 28.5071 30.6906 28.4777 30.6001C28.4482 30.5398 28.4482 30.5096 28.4187 30.4492C28.5071 30.2079 28.6251 29.9663 28.861 29.8457C29.0673 29.725 29.2147 29.5742 29.2738 29.3326C29.3622 29.1214 29.4506 28.9102 29.5097 28.6687C29.5097 28.8196 29.5686 28.8799 29.6865 28.8196C29.8045 28.7593 29.8929 28.6687 29.9224 28.5481C29.9519 28.4274 30.0108 28.3067 30.0108 28.186C30.0403 28.0955 30.0698 28.0351 30.1877 28.0351C30.3646 28.0049 30.5415 27.9445 30.5709 27.7334C30.5709 27.7032 30.5415 27.673 30.5415 27.6428C30.5709 27.6428 30.5709 27.673 30.5709 27.673C30.7184 27.7636 30.7478 27.5825 30.8362 27.5221C30.8951 27.4316 30.9836 27.4617 31.0721 27.4316C31.1901 27.4014 31.308 27.4014 31.4259 27.4014C31.4848 27.4014 31.5733 27.4014 31.5143 27.5221L31.4553 27.5825C31.4848 27.673 31.3374 27.7636 31.4553 27.854C31.5143 27.8842 31.5733 27.8842 31.6322 27.9144C31.6911 27.9144 31.7206 27.9445 31.7796 27.9747C31.8091 27.9747 31.8385 28.0049 31.8976 28.0049C31.986 28.0351 32.045 28.0955 32.1335 28.0955C32.1924 28.0955 32.2514 28.1256 32.3103 28.0955C32.3693 28.0351 32.3987 27.9747 32.4578 27.9144C32.9294 27.1901 33.3716 26.4357 33.7548 25.651C31.9271 29.725 28.5664 32.9238 24.4393 34.5835L24.4386 34.5834ZM34.049 25.1379C33.9901 25.2586 33.9606 25.349 33.9016 25.4699C33.9605 25.3491 33.99 25.2285 34.049 25.1379Z" fill="white"/>
<path fill-rule="evenodd" clip-rule="evenodd" d="M28.9786 31.8071C29.067 31.7467 29.1555 31.6864 29.2439 31.5657C29.1849 31.5657 29.1259 31.5356 29.067 31.5356C29.0375 31.6261 28.8901 31.6563 28.9786 31.8071ZM26.8562 32.6219C26.8267 32.7124 26.8856 32.7125 26.9445 32.7426C27.0035 32.7426 27.0625 32.803 27.1509 32.7728C27.1509 32.7125 27.1214 32.6219 27.0625 32.5616C27.0036 32.622 26.9445 32.622 26.8562 32.622V32.6219ZM12.5881 29.6645C12.6175 29.7249 12.6471 29.755 12.7059 29.755C12.7059 29.7249 12.7354 29.6645 12.7354 29.6645C12.6763 29.6041 12.647 29.6645 12.588 29.6645H12.5881ZM23.4364 31.7166C23.5543 31.5958 23.4364 31.5355 23.3774 31.445C23.2596 31.5657 23.4364 31.6261 23.4364 31.7166ZM26.296 14.8171C26.237 14.7568 26.1485 14.8171 26.0896 14.8775C25.7948 15.0887 25.7359 15.3905 25.6768 15.7527C25.9127 15.5113 26.2369 15.4508 26.2075 15.0586C26.2075 15.0284 26.2369 14.9982 26.2369 14.968C26.2959 14.9077 26.4138 14.8775 26.2959 14.8171H26.296ZM25.7949 32.8332C25.7065 32.7728 25.6475 32.6823 25.559 32.622C25.5295 32.5013 25.4706 32.4409 25.3526 32.4409L25.1758 32.5315C25.1758 32.622 25.2642 32.6824 25.3232 32.7426C25.4706 32.8634 25.5884 32.984 25.6769 33.1047C25.7653 33.1651 25.7653 33.2254 25.7653 33.3159C25.8243 33.3461 25.8537 33.4064 25.9422 33.4064V33.2253C25.9422 33.165 25.9127 33.1046 25.8833 33.0442C25.8243 33.0141 25.8243 32.9235 25.7949 32.8331V32.8332ZM24.763 15.6622C24.6746 15.7528 24.5566 15.8734 24.5272 16.0244C24.4977 16.0848 24.4093 16.1149 24.4682 16.1753C24.5272 16.2055 24.5565 16.1451 24.5565 16.1149C24.6449 15.9942 24.704 15.8434 24.7923 15.7226C24.8514 15.6924 24.8807 15.632 24.8807 15.5415C24.8513 15.5415 24.7923 15.6018 24.7629 15.6622H24.763ZM27.5341 12.1013C27.5046 12.0711 27.4457 12.0711 27.4457 12.1013C27.3868 12.1918 27.3573 12.2824 27.3573 12.3729C27.3573 12.4333 27.4457 12.4936 27.5047 12.4936C27.5931 12.4936 27.5637 12.4031 27.5637 12.3427C27.5637 12.3125 27.5931 12.2522 27.5637 12.2824C27.5931 12.1918 27.5931 12.1315 27.5342 12.1013H27.5341ZM28.6544 14.3645C28.7428 14.3343 28.8903 14.3947 28.8903 14.2136C28.8903 14.0627 28.8019 14.0627 28.6544 14.0929C28.6249 14.123 28.4775 14.0325 28.4481 14.1834C28.4481 14.2438 28.507 14.3946 28.6544 14.3645ZM28.2122 14.8775C28.2416 14.9379 28.2122 14.9982 28.2711 15.1188C28.3595 14.7868 28.6248 14.817 28.8312 14.7868C28.8901 14.7868 28.9786 14.817 28.9786 14.6963C28.9786 14.6058 28.9197 14.5454 28.8312 14.5454C28.7132 14.5454 28.5953 14.5152 28.448 14.5152C28.1531 14.5152 28.0942 14.6058 28.2121 14.8774L28.2122 14.8775ZM13.6199 29.2119C13.5608 29.2722 13.4724 29.2722 13.3545 29.3326C13.4723 29.4231 13.5608 29.5137 13.6493 29.6041C13.6788 29.6343 13.7377 29.6947 13.7672 29.6343C13.8262 29.5438 14.003 29.5136 13.9441 29.3628C13.8557 29.2421 13.8262 29.0611 13.6198 29.2119H13.6199ZM11.3794 14.0628C11.4384 14.093 11.4384 14.0326 11.4384 13.9722C11.4384 13.9119 11.4384 13.8515 11.35 13.8515C11.291 13.8515 11.2321 13.9119 11.2321 13.9722C11.2615 14.0326 11.35 14.0326 11.3795 14.0628H11.3794ZM26.4139 31.958L26.3844 31.9882C26.3844 32.0184 26.3844 32.0486 26.4139 32.0787C26.4434 31.9882 26.6203 32.1391 26.5908 31.958H26.4139ZM11.8805 12.3426C11.7922 12.2219 11.8511 12.0409 11.7626 11.89C11.6742 11.9504 11.5563 12.0107 11.5267 12.1315C11.5267 12.222 11.851 12.4935 11.9688 12.5238C12.0279 12.4333 11.9394 12.3729 11.8804 12.3427L11.8805 12.3426ZM11.9689 11.2261C11.9984 11.1657 12.028 11.1054 11.9689 11.045C11.9099 10.9847 11.851 11.045 11.8215 11.045C11.4383 11.1657 11.4087 11.1959 11.4383 11.6184C11.7036 11.6184 11.8215 11.4071 11.9689 11.226V11.2261ZM10.9667 16.145C10.9077 15.8432 11.0257 15.7225 11.2615 15.632C11.291 15.6018 11.3499 15.6018 11.3795 15.5717C11.4679 15.4811 11.5563 15.3605 11.4089 15.2397C11.291 15.1491 11.3205 15.0586 11.3499 14.9379C11.4383 14.7267 11.3204 14.5455 11.0846 14.5455H10.7014C10.7309 14.4549 10.8488 14.3946 10.7309 14.3041C10.6425 14.2438 10.6129 14.2438 10.554 14.3343C10.4656 14.3645 10.3771 14.274 10.2887 14.3343C10.0235 14.3645 9.87596 14.5757 9.66962 14.7267C9.96445 14.9379 9.93488 14.9379 9.75801 15.119C9.69898 15.1794 9.64005 15.2096 9.55166 15.1794C9.40425 15.119 9.25683 15.0889 9.13888 15.0285C9.02093 14.9681 8.93254 15.0285 8.90298 15.1492C8.87352 15.2699 8.69664 15.3604 8.90298 15.4812C8.99137 15.5416 8.84396 15.6019 8.81459 15.6321C8.66718 15.7529 8.66718 15.8735 8.81459 15.9943C8.90298 16.0547 8.99147 16.0849 9.07986 16.1452C9.19781 16.2056 9.25674 16.2659 9.10932 16.3564C8.99137 16.4469 8.87342 16.5375 8.75557 16.6582C8.7261 16.6582 8.69654 16.6884 8.69654 16.7186C8.69654 16.7186 8.72601 16.7487 8.75557 16.7487C8.78513 16.7487 8.78503 16.7186 8.81459 16.7186H8.93254C8.87352 16.7186 8.81459 16.7186 8.75566 16.7789C8.63771 16.9298 8.51976 17.0807 8.25449 17.0505C8.63771 17.2014 8.31352 17.2616 8.28396 17.3523C8.34298 17.4428 8.46083 17.3825 8.51986 17.473C8.4904 17.5032 8.46083 17.5032 8.43147 17.5334C8.40201 17.5937 8.46093 17.5937 8.49049 17.5937C8.52005 17.5937 8.57888 17.5937 8.54952 17.6541C8.46113 17.7748 8.57898 17.7748 8.63791 17.7748C8.84425 17.805 9.05069 17.6843 9.22747 17.6239C9.55176 17.5334 9.90552 17.3524 10.2593 17.5032C10.4656 17.5937 10.5836 17.5032 10.6721 17.292C10.8489 16.9298 11.0258 16.5678 10.9669 16.1453L10.9667 16.145ZM8.93254 16.6882H9.10942C9.0504 16.7184 8.99147 16.6882 8.93254 16.6882ZM14.2978 29.2119C14.3568 29.2722 14.3862 29.3326 14.4747 29.3326C14.4452 29.2421 14.4157 29.2119 14.2978 29.2119ZM26.3254 31.2941C26.2665 31.3243 26.3254 31.3545 26.3254 31.4148C26.3549 31.4148 26.4138 31.4148 26.4138 31.3545C26.4138 31.2941 26.3843 31.2639 26.3254 31.2941ZM26.7382 33.0746C26.7382 33.1652 26.7382 33.2858 26.7087 33.3763C26.7677 33.3763 26.7971 33.3462 26.8267 33.316C26.8562 33.2556 26.8562 33.2254 26.8856 33.1651C26.8267 33.1047 26.7972 33.0443 26.7382 33.0745V33.0746ZM17.8943 27.7332C17.8943 27.6426 17.8353 27.6728 17.7764 27.703C17.629 27.7634 17.3932 27.6728 17.3343 27.8841C17.2753 28.1858 17.2459 28.5178 17.5701 28.7894C17.6585 28.5179 17.8649 28.3065 17.8649 28.0048C17.924 27.9444 17.8944 27.8237 17.8944 27.7333L17.8943 27.7332ZM11.9689 14.3343C11.9689 14.2438 12.0869 14.1532 11.9099 14.1231C11.9099 14.1835 11.8804 14.2439 11.9689 14.3343ZM12.0869 15.6622C11.9985 15.7226 11.9395 15.7528 11.91 15.8734C12.0574 15.8734 12.1163 15.813 12.0869 15.6622ZM11.5562 45.4775V43.7573H6.25001V42.2485H11.2321V40.5887H6.25001V39.11H11.5562V37.2993H3.65576V45.4472H11.5562V45.4774V45.4775ZM28.9491 37.3598H25.7064L22.2278 45.5078H25.0873L25.5589 44.1498H29.0375L29.5091 45.5078H32.2803L28.9491 37.3598ZM26.2075 42.5201L27.3277 39.3817L28.4479 42.5201H26.2075ZM19.3389 42.3693C19.0735 44.0593 17.2459 43.9385 17.2459 43.9385C14.976 43.9989 15.035 41.3432 15.035 41.3432C15.035 41.3432 15.0055 38.9593 17.2459 38.9593C17.2459 38.9593 18.9263 38.8385 19.3094 40.4983H22.1984C22.1984 40.4983 22.051 36.877 16.9511 37.1184C16.9511 37.1184 12.2049 37.1184 12.2344 41.3432C12.1164 45.8999 16.9806 45.7491 16.9806 45.7491C22.1396 45.9905 22.228 42.3994 22.228 42.3994L19.339 42.3692L19.3389 42.3693ZM4.45176 49.4308H4.03908V50.306H4.51069V50.8492H3.68523V47.5599H4.48123V48.1032H4.03908V48.8576H4.45176V49.431V49.4308ZM5.10035 47.5899V49.7325C5.10035 50.2154 5.18884 50.3662 5.27723 50.3662C5.39518 50.3662 5.4541 50.2455 5.4541 49.7325V47.5899H5.80786V49.6118C5.80786 50.4568 5.63098 50.9094 5.27723 50.9094C4.89401 50.9094 4.74659 50.4265 4.74659 49.6118V47.5899H5.10035ZM6.10259 47.6504C6.22054 47.6202 6.36786 47.59 6.48581 47.59C6.69215 47.59 6.86903 47.6504 6.98698 47.8314C7.10493 48.0124 7.1344 48.2236 7.1344 48.5254C7.1344 48.8875 7.04601 49.1893 6.83957 49.3402C6.95752 49.4308 7.01644 49.642 7.07547 49.974C7.10493 50.336 7.16386 50.7284 7.19342 50.8491H6.8102C6.78074 50.7586 6.75118 50.4267 6.72181 50.0645C6.69235 49.6421 6.63342 49.5514 6.51547 49.5514H6.48601V50.849H6.13225V47.6503H6.10279L6.10259 47.6504ZM6.48581 49.0687H6.54484C6.69225 49.0687 6.78074 48.8575 6.78074 48.5556C6.78074 48.2841 6.72171 48.0727 6.54484 48.0727C6.51537 48.0727 6.48581 48.0727 6.45645 48.1029V49.0686H6.48591L6.48581 49.0687ZM8.4904 49.1893C8.4904 50.4266 8.25449 50.9397 7.90084 50.9397C7.48805 50.9397 7.31127 50.155 7.31127 49.2497C7.31127 48.3443 7.51762 47.5899 7.90084 47.5899C8.34298 47.5597 8.4904 48.4349 8.4904 49.1893ZM7.66503 49.2497C7.66503 50.0041 7.75342 50.3662 7.90093 50.3662C8.04845 50.3662 8.10727 49.8833 8.10727 49.2195C8.10727 48.6462 8.04825 48.1332 7.90093 48.1332C7.75362 48.1332 7.66503 48.5254 7.66503 49.2497ZM8.69674 47.6504C8.78513 47.6202 8.93264 47.59 9.07996 47.59C9.2863 47.59 9.46318 47.6504 9.58113 47.8314C9.69908 48.0124 9.72854 48.2841 9.72854 48.5556C9.72854 48.9177 9.66952 49.1592 9.58113 49.3402C9.46318 49.5514 9.2863 49.642 9.13898 49.642H9.07996V50.849H8.7262V47.6503H8.69674V47.6504ZM9.05049 49.129H9.10952C9.2864 49.129 9.37479 48.8876 9.37479 48.5857C9.37479 48.2838 9.31576 48.0726 9.13888 48.0726C9.10942 48.0726 9.07986 48.0726 9.05049 48.1028V49.129ZM10.7308 49.4308H10.318V50.306H10.7897V50.8492H9.96435V47.5599H10.7603V48.1032H10.3182V48.8576H10.731V49.431L10.7308 49.4308ZM11.3204 50.1249L11.2321 50.8793H10.8783L11.2615 47.59H11.6743L12.0281 50.8793H11.6743L11.5859 50.1249H11.3204ZM11.6152 49.6421L11.5562 48.948C11.5267 48.7368 11.5267 48.4349 11.4971 48.1935C11.4677 48.4047 11.4381 48.7669 11.4381 48.948L11.3791 49.6421H11.6152ZM12.2638 50.8793V47.59H12.5881L12.8829 48.8876C12.9419 49.129 13.0303 49.5515 13.0892 49.8533C13.0892 49.5214 13.0598 48.948 13.0598 48.3444V47.6202H13.3841V50.9095H13.0598L12.7649 49.6722C12.7059 49.4007 12.6175 48.9782 12.5881 48.6763C12.5881 49.0082 12.6175 49.5213 12.6175 50.155V50.8793H12.2638ZM15.418 50.8189C15.359 50.8491 15.2706 50.9095 15.1526 50.9095C14.681 50.9095 14.4746 50.2154 14.4746 49.2799C14.4746 48.0426 14.8578 47.5597 15.2116 47.5597C15.3294 47.5597 15.4179 47.5899 15.4474 47.6503L15.3883 48.1935C15.3589 48.1634 15.3 48.1332 15.2115 48.1332C15.0051 48.1332 14.8282 48.4349 14.8282 49.2497C14.8282 50.0343 15.0051 50.336 15.2115 50.336C15.2705 50.336 15.3293 50.3059 15.3883 50.2757L15.4178 50.8189H15.418ZM15.595 47.5899H15.9487V50.336H16.4203V50.8793H15.595V47.5899ZM16.9215 47.5899V49.7325C16.9215 50.2154 17.0099 50.3662 17.0984 50.3662C17.2163 50.3662 17.2753 50.2455 17.2753 49.7325V47.5899H17.629V49.6118C17.629 50.4568 17.4522 50.9094 17.0984 50.9094C16.7152 50.9094 16.5678 50.4265 16.5678 49.6118V47.5899H16.9215ZM17.9533 47.6504C18.0712 47.6202 18.1891 47.59 18.3661 47.59C18.5431 47.59 18.6904 47.6202 18.8377 47.8314C18.9261 47.9823 18.9851 48.1934 18.9851 48.4349C18.9851 48.7366 18.8967 49.0082 18.7198 49.1592V49.1893C18.9261 49.3101 19.0441 49.6118 19.0441 49.974C19.0441 50.2455 18.985 50.4569 18.8966 50.6077C18.7788 50.8188 18.6018 50.9396 18.3071 50.9396C18.1597 50.9396 18.0713 50.9396 17.9828 50.9094V47.6503H17.9533V47.6504ZM18.3071 48.948H18.3955C18.5133 48.948 18.6313 48.7669 18.6313 48.4953C18.6313 48.2539 18.5723 48.0728 18.4249 48.0728C18.3955 48.0728 18.3659 48.0728 18.3365 48.103V48.948H18.3071ZM18.3071 50.3965H18.3955C18.5429 50.3965 18.6608 50.2456 18.6608 49.9136C18.6608 49.5816 18.543 49.4307 18.3955 49.4005H18.3071V50.3965ZM20.0168 50.1249L19.9284 50.8793H19.5747L19.9875 47.59H20.4296L20.8128 50.8793H20.4591L20.3707 50.1249H20.0168ZM20.3117 49.6421L20.2526 48.948C20.2232 48.7368 20.1936 48.4349 20.1936 48.1935C20.1642 48.4047 20.1346 48.7669 20.1346 48.948L20.0756 49.6421H20.3117ZM20.9897 50.2154C21.0781 50.2758 21.1961 50.3361 21.314 50.3361C21.4909 50.3361 21.5794 50.1852 21.5794 49.9741C21.5794 49.7327 21.491 49.612 21.3436 49.4308C21.0782 49.1593 20.9898 48.8273 20.9898 48.5254C20.9898 48.0124 21.1962 47.5597 21.6088 47.5597C21.7267 47.5597 21.8446 47.6201 21.9037 47.6805L21.8446 48.2237C21.7856 48.1634 21.6972 48.103 21.6088 48.103C21.4614 48.103 21.373 48.2539 21.373 48.4349C21.373 48.6159 21.4321 48.7366 21.6384 48.948C21.9038 49.2195 21.9922 49.5515 21.9922 49.8835C21.9922 50.487 21.7268 50.8794 21.3436 50.8794C21.1962 50.8794 21.0487 50.819 20.9603 50.7587L20.9898 50.2154H20.9897ZM22.1099 50.2154C22.1983 50.2758 22.3162 50.3361 22.4342 50.3361C22.6111 50.3361 22.6996 50.1852 22.6996 49.9741C22.6996 49.7327 22.6112 49.612 22.4638 49.4308C22.1984 49.1593 22.11 48.8273 22.11 48.5254C22.11 48.0124 22.3163 47.5597 22.729 47.5597C22.8469 47.5597 22.9648 47.6201 23.0239 47.6805L22.9648 48.2237C22.9058 48.1634 22.8174 48.103 22.729 48.103C22.5816 48.103 22.4932 48.2539 22.4932 48.4349C22.4932 48.6159 22.5522 48.7366 22.7586 48.948C23.024 49.2195 23.1123 49.5515 23.1123 49.8835C23.1123 50.487 22.847 50.8794 22.4638 50.8794C22.3163 50.8794 22.1689 50.819 22.0805 50.7587L22.11 50.2154H22.1099ZM24.4388 49.1893C24.4388 50.4266 24.1734 50.9397 23.8198 50.9397C23.3776 50.9397 23.2007 50.155 23.2007 49.2497C23.2007 48.3443 23.4071 47.5899 23.8493 47.5899C24.2915 47.5597 24.4389 48.4349 24.4389 49.1893H24.4388ZM23.5839 49.2497C23.5839 50.0041 23.6722 50.3662 23.8197 50.3662C23.9671 50.3662 24.026 49.8833 24.026 49.2195C24.026 48.6462 23.967 48.1332 23.7902 48.1332C23.6723 48.1332 23.5839 48.5254 23.5839 49.2497ZM25.5885 50.8189C25.5296 50.8491 25.4411 50.9095 25.2937 50.9095C24.7925 50.9095 24.5567 50.2154 24.5567 49.2799C24.5567 48.0426 24.9695 47.5597 25.3526 47.5597C25.4706 47.5597 25.5885 47.5899 25.6179 47.6503L25.559 48.1935C25.5295 48.1634 25.4706 48.1332 25.3821 48.1332C25.1758 48.1332 24.9693 48.4349 24.9693 49.2497C24.9693 50.0343 25.1462 50.336 25.3821 50.336C25.441 50.336 25.5295 50.3059 25.559 50.2757L25.5884 50.8189H25.5885ZM26.1781 47.5899V50.8792H25.7949V47.5899H26.1781ZM26.8266 50.1249L26.7382 50.8793H26.3844L26.7972 47.59H27.2395L27.6227 50.8793H27.2689L27.1805 50.1249H26.8266ZM27.1509 49.6421L27.092 48.948C27.0625 48.7368 27.033 48.4349 27.033 48.1935C27.0036 48.4047 26.9741 48.7669 26.9741 48.948L26.9152 49.6421H27.1511H27.1509ZM27.8879 48.1935H27.5341V47.6202H28.5954V48.1935H28.2416V50.8794H27.8584V48.1935H27.8879ZM29.1849 47.5899V50.8792H28.8017V47.5899H29.1849ZM30.6884 49.1893C30.6884 50.4266 30.4232 50.9397 30.0693 50.9397C29.6271 50.9397 29.4502 50.155 29.4502 49.2497C29.4502 48.3443 29.6565 47.5899 30.0987 47.5899C30.5409 47.5597 30.6883 48.4349 30.6883 49.1893H30.6884ZM29.8335 49.2497C29.8335 50.0041 29.9219 50.3662 30.0694 50.3662C30.2169 50.3662 30.2758 49.8833 30.2758 49.2195C30.2758 48.6462 30.2168 48.1332 30.0399 48.1332C29.9219 48.1332 29.8335 48.5254 29.8335 49.2497ZM30.9243 50.8793V47.59H31.278L31.5728 48.8876C31.6318 49.129 31.7203 49.5515 31.7792 49.8533C31.7792 49.5214 31.7497 48.948 31.7497 48.3444V47.6202H32.074V50.9095H31.7203L31.4254 49.6722C31.3536 49.3409 31.2849 49.009 31.2191 48.6763C31.2191 49.0082 31.2485 49.5213 31.2485 50.155V50.8793H30.9243Z" fill="white"/>
</svg>
