<svg width="80" height="25" viewBox="0 0 80 25" fill="none" xmlns="http://www.w3.org/2000/svg">
<path d="M0.147461 23.9537H5.05492V16.2447H11.3475V23.9537H16.2549V4.69843H11.3475V11.9149H5.05492V4.69843H0.147461V23.9537ZM24.1818 23.9537H29.0892V16.9387L34.8056 4.69843H29.5221L26.6355 12.4342L23.7773 4.69843H18.437L24.1818 16.9387V23.9537ZM37.3922 23.9537H47.9877V19.6223H42.3012V4.69843H37.3922V23.9537ZM59.331 4.32231C53.4713 4.32231 49.14 8.65214 49.14 14.4552C49.14 19.9985 53.6146 24.3283 59.331 24.3283C64.9892 24.3283 69.4639 19.9118 69.4639 14.3104C69.4624 8.7387 64.9877 4.32231 59.331 4.32231ZM59.331 8.65366C62.2475 8.65366 64.5564 11.1357 64.5564 14.2835C64.5564 17.5462 62.334 19.9999 59.331 19.9999C56.328 19.9999 54.0475 17.5178 54.0475 14.2835C54.0475 11.0775 56.2997 8.65366 59.331 8.65366ZM74.7266 10.6104C77.6684 10.6104 79.9908 8.28798 79.9908 5.37305C79.9908 2.45962 77.6684 0.135742 74.7266 0.135742C71.7863 0.135742 69.4624 2.45962 69.4624 5.37305C69.4624 8.28798 71.7863 10.6104 74.7266 10.6104ZM74.7266 9.8059C72.3236 9.8059 70.2668 7.84469 70.2668 5.37305C70.2668 2.90141 72.3236 0.940222 74.7266 0.940222C77.1311 0.940222 79.1863 2.90141 79.1863 5.37305C79.1877 7.84469 77.1311 9.8059 74.7266 9.8059ZM75.4937 5.55962C76.5146 5.53276 77.3056 5.11783 77.3056 3.98947C77.3056 2.75365 76.2997 2.47305 75.2654 2.47305H72.7684V8.20742H73.5728V5.55962H74.54L76.2609 8.2059H77.2266L75.4937 5.55962ZM73.5713 4.75514V3.27604H75.1042C75.7221 3.27604 76.5012 3.3835 76.5012 3.97455C76.5012 4.88798 75.252 4.75514 74.5385 4.75514H73.5713Z" fill="white"/>
</svg>
