<svg width="90" height="35" viewBox="0 0 90 35" fill="none" xmlns="http://www.w3.org/2000/svg">
<path d="M29.3568 29.4523C28.8589 29.4938 28.361 29.4938 27.9046 29.4938C27.3651 29.4938 26.7842 29.4523 26.2448 29.4523L27.8631 25.5104L29.3568 29.4523ZM31.1411 33.8922C31.4315 33.8922 31.888 33.8092 32.3444 33.8092C32.8008 33.8092 33.3402 33.8922 33.5892 33.8922C32.8838 32.3569 31.805 29.9088 31.1826 28.5395C30.6017 27.2117 29.6473 24.9295 28.8589 22.7719C28.6929 22.8133 28.527 22.8548 28.361 22.8548C28.1535 22.8548 27.9876 22.8133 27.8216 22.7719C27.4481 24.0997 26.4938 26.1743 24.8755 29.7843L23.0083 33.9337C23.2158 33.8922 23.4647 33.8507 23.7137 33.8507C23.9627 33.8507 24.2946 33.8922 24.5021 33.9337C24.751 33.0208 25.249 31.693 25.7884 30.4482C26.4108 30.4067 27.0747 30.4067 27.6971 30.4067C28.361 30.4067 29.0664 30.4482 29.7303 30.4482L30.3942 32.1494L31.1411 33.8922Z" fill="white"/>
<path d="M35 26.5892C35 29.3278 35 31.9834 34.834 33.8921C35.2074 33.8921 35.6224 33.8091 35.9958 33.8091C36.3693 33.8091 36.7427 33.8921 37.1161 33.8921C36.9917 32.6058 36.9502 30.863 36.9502 28.4564C36.9502 26.8381 36.9502 24.0581 37.1161 22.8962C36.7427 22.9377 36.3278 22.9792 35.9958 22.9792C35.7468 22.9792 35.1659 22.9377 34.8755 22.8962C35 24.473 35 25.5933 35 26.5892Z" fill="white"/>
<path d="M44.5437 28.4564C45.996 28.166 47.3238 27.2531 47.3238 25.5104C47.3238 24.8465 47.0749 24.1826 46.5769 23.7261C45.8715 23.0622 45.0832 22.9377 44.0458 22.9377C43.6724 22.9377 41.8052 23.0207 41.3902 23.0207C40.5603 23.0207 40.1454 22.9792 39.772 22.9377C39.8964 25.0124 39.8964 25.2199 39.8964 27.3361C39.8964 30.4066 39.8964 30.7801 39.7305 33.9336C40.1039 33.8921 40.4774 33.8506 40.8508 33.8506C41.2657 33.8506 41.5977 33.8921 41.9296 33.9336C41.9296 33.5187 41.8881 31.444 41.8881 30.9875V28.6639H42.2616C43.133 29.8672 44.1288 31.3195 44.9587 32.5643C45.2076 32.9377 45.5396 33.5187 45.7886 33.8921C46.2865 33.8091 46.4525 33.8091 47.0749 33.8091C47.6558 33.8091 48.0707 33.8506 48.4857 33.8921C47.4898 32.6473 47.0334 32.0664 45.7886 30.2821C45.5396 29.9502 45.2076 29.4108 44.9587 29.0788L44.5437 28.4564ZM41.8881 23.7676C42.1371 23.7261 42.718 23.6846 43.0085 23.6846C43.5479 23.6846 44.0873 23.7676 44.5023 24.0996C45.0832 24.5145 45.1662 25.0954 45.1662 25.7593C45.1662 26.7967 44.5852 27.9585 42.967 27.9585C42.552 27.9585 42.1786 27.917 41.8467 27.917V23.7676H41.8881Z" fill="white"/>
<path d="M52.8836 30.1577C52.1367 27.9585 51.0994 24.805 50.6015 22.9377C50.1865 22.9792 49.8546 23.0207 49.4811 23.0207C49.1077 23.0207 48.5268 22.9792 48.2363 22.9377C48.9002 24.6805 49.4396 26.2157 49.8961 27.4191C50.643 29.4938 51.0994 30.946 51.6803 32.6888L52.0953 33.8921C52.3027 33.8506 52.5932 33.8091 52.7591 33.8091C52.9251 33.8091 53.0911 33.8506 53.3816 33.8921C53.6305 33.0622 53.921 32.0249 54.1699 31.361C54.7923 29.5352 54.8753 29.2863 55.7052 27.0041L56.2031 25.6763C56.3691 26.1743 56.7011 27.0041 56.867 27.502C57.033 28 57.8629 30.4481 58.0704 30.9875C58.3608 31.6929 58.4023 31.9004 58.9832 33.8506C59.1492 33.8506 59.4396 33.7676 59.6886 33.7676C59.8961 33.7676 60.1035 33.8091 60.311 33.8506C60.9334 31.9419 60.9749 31.7759 61.8878 29.2033C62.7591 26.7137 63.3401 25.3029 64.2944 22.8962C64.0869 22.9377 63.838 22.9792 63.589 22.9792C63.2986 22.9792 63.0081 22.9377 62.8421 22.8962C62.2612 24.9709 61.9708 25.9668 61.5143 27.3776C60.7674 29.6182 60.643 29.8672 60.1865 31.112C59.6471 29.7427 59.1492 28.3319 58.6928 26.9211C58.4023 26.1328 57.4479 22.9377 57.4479 22.9377C57.199 22.9792 57.033 23.0207 56.7426 23.0207C56.4521 23.0207 56.2446 22.9792 56.0372 22.9377C55.5392 24.8879 53.838 29.6182 53.672 30.0332L53.2571 31.0705L52.8836 30.1577Z" fill="white"/>
<path d="M69.0248 29.4523C68.5269 29.4938 68.0705 29.4938 67.5725 29.4938C66.9916 29.4938 66.4522 29.4523 65.9128 29.4523L67.5725 25.5104L69.0248 29.4523ZM70.8506 33.8922C71.141 33.8922 71.5974 33.8092 72.0539 33.8092C72.5103 33.8092 73.0912 33.8922 73.2987 33.8922C72.5933 32.3569 71.5145 29.9088 70.892 28.5395C70.3111 27.2117 69.3568 24.9295 68.5684 22.7719C68.4024 22.8133 68.2365 22.8548 68.0705 22.8548C67.863 22.8548 67.697 22.8133 67.5311 22.7719C67.1576 24.0997 66.2033 26.1743 64.585 29.7843L62.7178 33.9337C62.9252 33.8922 63.1742 33.8507 63.4232 33.8507C63.6721 33.8507 64.0041 33.8922 64.2116 33.9337C64.4605 33.0208 64.9584 31.693 65.4979 30.4482C66.1203 30.4067 66.7842 30.4067 67.4481 30.4067C68.1535 30.4067 68.8174 30.4482 69.4813 30.4482L70.1867 32.1494L70.8506 33.8922Z" fill="white"/>
<path d="M77.5728 29.6182C77.5728 29.4938 77.6558 29.2863 77.7802 29.1203C78.4856 27.9585 79.108 26.7552 79.8134 25.5933C80.0624 25.2199 81.2242 23.3527 81.4732 22.9377C81.3072 22.9792 81.1412 23.0207 80.8093 23.0207C80.4358 23.0207 80.1039 22.9792 79.8549 22.9377C78.6931 25.4689 78.4441 26.0083 77.0748 28.3319C75.7056 25.9668 75.0831 24.6805 74.2948 22.9377C73.8383 23.0207 73.3404 23.0207 72.967 23.0207C72.635 23.0207 72.2616 22.9792 71.6392 22.9377C72.469 24.307 73.8383 26.5477 74.6682 27.9585L75.6226 29.5767C75.6226 30.5726 75.5811 32.6888 75.5396 33.9336C75.83 33.8921 76.2865 33.8506 76.6184 33.8506C76.9919 33.8506 77.3653 33.8921 77.7387 33.9336C77.6972 32.4398 77.6143 31.5685 77.6143 30.2407V29.6182" fill="white"/>
<path d="M82.3861 31.4854C82.3032 32.2323 82.3032 32.4398 82.0127 33.3111C82.5936 33.6016 83.631 34.141 85.0417 34.141C87.9878 34.141 89.1081 32.2738 89.1081 30.614C89.1081 30.1576 88.9836 29.2033 88.3197 28.4979C87.8633 27.9999 87.3654 27.7925 86.1206 27.336C84.7098 26.7966 83.9214 26.4647 83.9214 25.3028C83.9214 24.3485 84.5438 23.5601 85.7886 23.5601C86.7845 23.5601 87.6558 24.0165 87.9048 24.9294H88.1123C88.2783 24.3485 88.2783 24.1825 88.6102 23.3941C87.8218 23.0207 87.1164 22.7302 85.9546 22.7302C83.05 22.7302 82.2202 24.5145 82.2202 25.9252C82.2202 27.253 82.6766 28.0829 84.2534 28.7468C84.7098 28.9128 85.4567 29.2448 85.9131 29.4107C86.2036 29.5352 87.2409 29.9916 87.2409 31.2779C87.2409 32.4398 86.411 33.2696 85.1662 33.2696C84.2119 33.2696 83.4235 33.0207 82.6766 31.4439L82.3861 31.4854Z" fill="white"/>
<path d="M4.62652 10.8215C4.62652 3.97504 8.27797 2.10782 11.0581 2.10782C15.4979 2.10782 17.4481 5.80077 17.4481 9.74268C17.4481 11.9833 17.1576 14.0995 16.0788 15.8423C14.9585 17.5435 13.1327 18.5808 11.0995 18.5808C6.03731 18.6223 4.62652 13.8091 4.62652 10.8215ZM18.1535 24.8464C18.9834 24.2655 20.2697 23.5601 21.1825 23.1452L15.0415 19.3277C18.8174 17.9999 21.1825 14.6389 21.1825 10.0331C21.1825 3.51861 16.2033 0.738525 11.0995 0.738525C5.62237 0.738525 0.850586 3.76757 0.850586 10.697C0.850586 12.1493 1.18254 14.9294 3.46469 17.253C5.82984 19.6597 8.65141 19.9916 11.0166 19.9916C11.307 19.9916 11.5975 19.9916 11.9294 19.9501L18.1535 24.8464Z" fill="white"/>
<path d="M33.8797 12.0249C33.0498 12.0664 32.22 12.1494 31.3901 12.1494C30.4357 12.1494 29.5229 12.0664 28.5685 12.0249L31.3486 5.34444L33.8797 12.0249ZM36.9503 19.6183C37.4482 19.5768 38.1951 19.4523 38.942 19.4523C39.6888 19.4523 40.6432 19.5768 41.0581 19.6183C39.8548 16.9627 38.0291 12.8548 36.9918 10.4897C35.9959 8.20751 34.3776 4.39008 33.0913 0.65564C32.8009 0.738627 32.5104 0.780121 32.22 0.780121C31.888 0.780121 31.6391 0.738627 31.3071 0.65564C30.6432 2.8963 29.0664 6.42327 26.3279 12.5644L23.2158 19.6183C23.5893 19.5768 23.9627 19.4523 24.4191 19.4523C24.8341 19.4523 25.3735 19.5768 25.7469 19.6183C26.1619 18.083 27.0332 15.8009 27.9046 13.7262C28.9835 13.6847 30.1038 13.6017 31.1826 13.6017C32.3444 13.6017 33.5063 13.6432 34.6681 13.7262L35.8299 16.6307L36.9503 19.6183Z" fill="white"/>
<path d="M49.0246 5.84231C49.0246 4.80497 49.0661 3.76762 49.0661 2.77177C50.9333 2.77177 52.8836 2.81326 54.4603 2.97924C54.3773 2.52281 54.3358 2.31534 54.3358 1.98339C54.3358 1.77592 54.3773 1.40248 54.4603 0.946045C51.8462 1.07053 49.4396 1.11202 47.1989 1.11202C45.1242 1.11202 42.0952 1.07053 39.9375 0.946045C40.0205 1.278 40.062 1.60994 40.062 1.94189C40.062 2.27384 40.0205 2.6058 39.9375 2.93775C41.3068 2.81326 43.9209 2.73028 44.2114 2.73028H45.5807C45.6221 3.80912 45.6221 4.76347 45.6221 5.75932L45.6636 13.3527C45.6636 15.4274 45.4977 17.5021 45.3732 19.5768C46.369 19.4523 46.784 19.4108 47.2404 19.4108C47.5724 19.4108 48.4437 19.4938 49.2321 19.5768C49.1491 18.8299 49.0246 17.917 49.0246 15.8423V5.84231Z" fill="white"/>
<path d="M64.1702 12.0249C63.3404 12.0664 62.5105 12.1494 61.6806 12.1494C60.7263 12.1494 59.8134 12.0664 58.859 12.0249L61.6391 5.34444L64.1702 12.0249ZM67.2408 19.6183C67.7387 19.5768 68.4856 19.4523 69.274 19.4523C70.0209 19.4523 70.9752 19.5768 71.3902 19.6183C70.1868 16.9627 68.3611 12.8548 67.3238 10.4897C66.3279 8.20751 64.7097 4.39008 63.4234 0.65564C63.1329 0.738627 62.8424 0.780121 62.552 0.780121C62.22 0.780121 61.9711 0.738627 61.6391 0.65564C60.9752 2.8963 59.3985 6.42327 56.6599 12.5644L53.5063 19.6183C53.8798 19.5768 54.2532 19.4523 54.7097 19.4523C55.1661 19.4523 55.664 19.5768 55.996 19.6183C56.4524 18.083 57.3238 15.8009 58.1536 13.7262C59.2325 13.6847 60.3113 13.6017 61.4317 13.6017C62.5935 13.6017 63.7553 13.6432 64.9171 13.7262L66.079 16.6307L67.2408 19.6183Z" fill="white"/>
<path d="M82.3027 10.3651C84.7923 9.90871 87.033 8.33195 87.033 5.34439C87.033 4.18257 86.6181 3.10373 85.7882 2.31535C84.6264 1.19502 83.2986 0.987549 81.5143 0.987549C80.8919 0.987549 77.7384 1.11203 77.033 1.11203C75.6637 1.11203 74.9583 1.02904 74.2944 0.987549C74.5019 4.51452 74.5019 4.88796 74.5019 8.45643C74.5019 13.6846 74.4604 14.307 74.2529 19.6597C74.8338 19.5768 75.4977 19.4938 76.1201 19.4938C76.7841 19.4938 77.4065 19.6183 77.9459 19.6597C77.9459 18.9544 77.8214 15.4274 77.8214 14.639V10.7801H78.4853C79.9376 12.8548 81.6388 15.2614 83.0496 17.3776C83.4645 18 84.0455 18.9958 84.4604 19.6597C85.2903 19.5353 85.6222 19.4938 86.6596 19.4938C87.6554 19.4938 88.3193 19.5768 89.0662 19.6597C87.365 17.5021 86.6181 16.5477 84.4604 13.5187C84.0455 12.9378 83.4645 12.0664 83.0496 11.4855L82.3027 10.3651ZM77.8629 2.43983C78.2778 2.39834 79.2737 2.31535 79.8131 2.31535C80.726 2.31535 81.5973 2.43983 82.3442 2.97925C83.2986 3.68464 83.506 4.6805 83.506 5.80083C83.506 7.58506 82.5102 9.53527 79.7716 9.53527C79.0662 9.53527 78.4023 9.49377 77.9044 9.45228V2.43983H77.8629Z" fill="white"/>
</svg>
