<svg xmlns="http://www.w3.org/2000/svg" width="109" height="17" viewBox="0 0 109 17">
  <defs>
    <style>
      .cls-1 {
        fill: #ffffff;
        fill-rule: evenodd;
      }
    </style>
  </defs>
  <path id="Siemens" class="cls-1" d="M542.336,2117.4v-3.23a16.958,16.958,0,0,0,4.955.87c1.982,0,2.972-.52,2.972-1.55a1.288,1.288,0,0,0-.432-0.98,9.177,9.177,0,0,0-2.27-1.15,15.611,15.611,0,0,1-4.272-2.27,4.152,4.152,0,0,1-1.289-3.12,4.2,4.2,0,0,1,1.877-3.71,8.43,8.43,0,0,1,4.831-1.26,27.165,27.165,0,0,1,4.751.6v3.11a11.714,11.714,0,0,0-4.295-.91c-1.861,0-2.792.5-2.792,1.51a1.074,1.074,0,0,0,.562.93q0.469,0.285,2.579,1.23a14.8,14.8,0,0,1,4.047,2.31,4.04,4.04,0,0,1,1.2,3.02,4.451,4.451,0,0,1-2.347,4.06,9.478,9.478,0,0,1-4.926,1.14,22.762,22.762,0,0,1-5.149-.6h0Zm15.038,0.27v-16.38h4.637v16.38h-4.637Zm8.891,0v-16.38h11.893v2.96h-7.426v3.7H577.2v2.7h-6.465v3.89h7.618v3.13H566.265Zm15.112,0v-16.38h6.013l4.177,10.46,4.281-10.46h5.709v16.38h-4.4v-11.6l-4.869,11.76H589.42l-4.776-11.76v11.6h-3.267Zm24.433,0v-16.38H617.7v2.96h-7.423v3.7h6.462v2.7h-6.462v3.89H617.9v3.13H605.81Zm15.137,0v-16.38h5.374l5.7,10.96v-10.96h3.267v16.38h-5.223l-5.852-11.12v11.12h-3.267Zm17.632-.27v-3.23a16.8,16.8,0,0,0,4.954.87c1.984,0,2.975-.52,2.975-1.55a1.306,1.306,0,0,0-.422-0.98,9.107,9.107,0,0,0-2.281-1.15,15.321,15.321,0,0,1-4.274-2.27,4.145,4.145,0,0,1-1.289-3.14,4.189,4.189,0,0,1,1.877-3.69,8.444,8.444,0,0,1,4.835-1.26,23.52,23.52,0,0,1,4.34.53l0.409,0.07v3.11a11.743,11.743,0,0,0-4.306-.91c-1.855,0-2.779.5-2.779,1.51a1.068,1.068,0,0,0,.56.93q0.447,0.27,2.591,1.23a15.014,15.014,0,0,1,4.035,2.31,4.046,4.046,0,0,1,1.2,3.02,4.454,4.454,0,0,1-2.334,4.06,9.534,9.534,0,0,1-4.936,1.14,22.779,22.779,0,0,1-5.151-.6h0Z" transform="translate(-542 -2101)"/>
</svg>
